<svg width="97" height="150" viewBox="0 0 97 150" fill="none" xmlns="http://www.w3.org/2000/svg">
<path d="M33.286 34.3451C40.2615 34.2604 46.3937 35.882 51.6825 39.21C56.9713 42.538 61.0925 47.2243 64.0462 53.2688C66.9358 59.3142 68.4289 66.3046 68.5253 74.24C68.6217 82.1754 67.2669 89.2004 64.461 95.3149C61.5918 101.494 57.5217 106.28 52.2505 109.672C46.9161 113.129 40.7611 114.9 33.7857 114.985C31.0339 115.018 28.2442 114.572 25.4168 113.647C22.5253 112.722 19.9172 111.409 17.5924 109.709L11.2273 115.259L9.21147 115.284L8.92226 91.4773L10.9381 91.4528L17.0704 106.259C19.3351 108.28 21.9788 109.88 25.0013 111.059C27.9599 112.24 30.879 112.812 33.7588 112.777C38.2385 112.723 42.1922 111.523 45.62 109.177C48.9837 106.832 51.5987 103.44 53.4649 99.0008C55.3312 94.5618 56.2273 89.3025 56.1535 83.2229L55.9401 65.6562C55.8662 59.5767 54.8745 54.3403 52.965 49.9472C51.0555 45.5541 48.4225 42.1938 45.066 39.8664C41.7102 37.603 37.7925 36.4985 33.3129 36.553C30.0491 36.5926 26.7939 37.3362 23.5472 38.7837C20.3014 40.2953 17.6053 42.2802 15.459 44.7384L10.0791 60.2609L8.06329 60.2854L7.76358 35.6152L9.77943 35.5908L16.7504 40.4024C19.0317 38.5186 21.638 37.0468 24.5693 35.9871C27.5007 34.9274 30.4062 34.3801 33.286 34.3451Z" fill="#FF8C3F"/>
<g filter="url(#filter0_i_4_27)">
<circle cx="86.3125" cy="74.4139" r="10.5" transform="rotate(90.0817 86.3125 74.4139)" fill="#39B2A3"/>
</g>
<path d="M63.4507 116.165C56.4748 116.209 50.3522 114.552 45.0828 111.193C39.8134 107.834 35.7194 103.124 32.8009 97.0626C29.9464 91.0006 28.494 84.0016 28.4437 76.0658C28.3934 68.1299 29.789 61.1129 32.6304 55.0148C35.5353 48.8523 39.6332 44.0902 44.924 40.7286C50.2784 37.3026 56.4435 35.5674 63.4194 35.5232C66.1713 35.5058 68.9583 35.9681 71.7804 36.9102C74.6664 37.852 77.2669 39.1795 79.5818 40.8929L85.9789 35.3802L87.9949 35.3674L88.1458 59.1749L86.1299 59.1877L80.0837 44.3457C77.8307 42.312 75.1964 40.6967 72.1808 39.4998C69.2291 38.3024 66.3133 37.7129 63.4334 37.7312C58.9535 37.7596 54.9929 38.9367 51.5516 41.2626C48.1742 43.588 45.5396 46.9648 43.6476 51.3929C41.7557 55.821 40.8289 61.075 40.8675 67.1548L40.9789 84.7225C41.0174 90.8024 41.9787 96.0444 43.8626 100.449C45.7466 104.853 48.36 108.228 51.703 110.575C55.0455 112.858 58.9568 113.985 63.4367 113.957C66.7006 113.936 69.9601 113.211 73.2151 111.783C76.4697 110.29 79.1772 108.321 81.3378 105.875L86.8077 90.384L88.8236 90.3713L88.9801 115.043L86.9641 115.056L80.0212 110.203C77.729 112.074 75.1142 113.531 72.1767 114.573C69.2393 115.616 66.3306 116.146 63.4507 116.165Z" fill="#FF8C3F"/>
<path d="M80 66C78.4908 68.9825 76.3778 76.5579 80 83" stroke="#27DDC6" stroke-width="0.4" stroke-linecap="round"/>
<path d="M93 83C94.5093 80.0175 96.6222 72.4421 93 66" stroke="#27DDC6" stroke-width="0.4" stroke-linecap="round"/>
<path d="M77.5 80.5C80.4825 82.0092 88.0579 84.1222 94.5 80.5" stroke="#27DDC6" stroke-width="0.4" stroke-linecap="round"/>
<path d="M94.5 68.5C91.5176 66.9908 83.9421 64.8778 77.5 68.5" stroke="#27DDC6" stroke-width="0.4" stroke-linecap="round"/>
<path d="M84 64C82.4908 67.6842 80.3778 77.0421 84 85" stroke="#27DDC6" stroke-width="0.4" stroke-linecap="round"/>
<path d="M88 85C89.5093 81.3158 91.6222 71.9579 88 64" stroke="#27DDC6" stroke-width="0.4" stroke-linecap="round"/>
<line x1="75.8" y1="74.8" x2="96.8" y2="74.8" stroke="#27DDC6" stroke-width="0.4"/>
<defs>
<filter id="filter0_i_4_27" x="75.8125" y="61.9139" width="24" height="23" filterUnits="userSpaceOnUse" color-interpolation-filters="sRGB">
<feFlood flood-opacity="0" result="BackgroundImageFix"/>
<feBlend mode="normal" in="SourceGraphic" in2="BackgroundImageFix" result="shape"/>
<feColorMatrix in="SourceAlpha" type="matrix" values="0 0 0 0 0 0 0 0 0 0 0 0 0 0 0 0 0 0 127 0" result="hardAlpha"/>
<feMorphology radius="1" operator="erode" in="SourceAlpha" result="effect1_innerShadow_4_27"/>
<feOffset dx="5" dy="-2"/>
<feGaussianBlur stdDeviation="1"/>
<feComposite in2="hardAlpha" operator="arithmetic" k2="-1" k3="1"/>
<feColorMatrix type="matrix" values="0 0 0 0 0 0 0 0 0 0 0 0 0 0 0 0 0 0 0.25 0"/>
<feBlend mode="normal" in2="shape" result="effect1_innerShadow_4_27"/>
</filter>
</defs>
</svg>
