<svg width="40" height="64" viewBox="0 0 40 64" fill="none" xmlns="http://www.w3.org/2000/svg">
<path d="M29.5312 42.5C29.5312 41.4375 29.3646 40.5 29.0312 39.6875C28.7188 38.8542 28.1562 38.1042 27.3438 37.4375C26.5521 36.7708 25.4479 36.1354 24.0312 35.5312C22.6354 34.9271 20.8646 34.3125 18.7188 33.6875C16.4688 33.0208 14.4375 32.2812 12.625 31.4688C10.8125 30.6354 9.26042 29.6875 7.96875 28.625C6.67708 27.5625 5.6875 26.3438 5 24.9688C4.3125 23.5938 3.96875 22.0208 3.96875 20.25C3.96875 18.4792 4.33333 16.8438 5.0625 15.3438C5.79167 13.8438 6.83333 12.5417 8.1875 11.4375C9.5625 10.3125 11.1979 9.4375 13.0938 8.8125C14.9896 8.1875 17.1042 7.875 19.4375 7.875C22.8542 7.875 25.75 8.53125 28.125 9.84375C30.5208 11.1354 32.3438 12.8333 33.5938 14.9375C34.8438 17.0208 35.4688 19.25 35.4688 21.625H29.4688C29.4688 19.9167 29.1042 18.4062 28.375 17.0938C27.6458 15.7604 26.5417 14.7188 25.0625 13.9688C23.5833 13.1979 21.7083 12.8125 19.4375 12.8125C17.2917 12.8125 15.5208 13.1354 14.125 13.7812C12.7292 14.4271 11.6875 15.3021 11 16.4062C10.3333 17.5104 10 18.7708 10 20.1875C10 21.1458 10.1979 22.0208 10.5938 22.8125C11.0104 23.5833 11.6458 24.3021 12.5 24.9688C13.375 25.6354 14.4792 26.25 15.8125 26.8125C17.1667 27.375 18.7812 27.9167 20.6562 28.4375C23.2396 29.1667 25.4688 29.9792 27.3438 30.875C29.2188 31.7708 30.7604 32.7812 31.9688 33.9062C33.1979 35.0104 34.1042 36.2708 34.6875 37.6875C35.2917 39.0833 35.5938 40.6667 35.5938 42.4375C35.5938 44.2917 35.2188 45.9688 34.4688 47.4688C33.7188 48.9688 32.6458 50.25 31.25 51.3125C29.8542 52.375 28.1771 53.1979 26.2188 53.7812C24.2812 54.3438 22.1146 54.625 19.7188 54.625C17.6146 54.625 15.5417 54.3333 13.5 53.75C11.4792 53.1667 9.63542 52.2917 7.96875 51.125C6.32292 49.9583 5 48.5208 4 46.8125C3.02083 45.0833 2.53125 43.0833 2.53125 40.8125H8.53125C8.53125 42.375 8.83333 43.7188 9.4375 44.8438C10.0417 45.9479 10.8646 46.8646 11.9062 47.5938C12.9688 48.3229 14.1667 48.8646 15.5 49.2188C16.8542 49.5521 18.2604 49.7188 19.7188 49.7188C21.8229 49.7188 23.6042 49.4271 25.0625 48.8438C26.5208 48.2604 27.625 47.4271 28.375 46.3438C29.1458 45.2604 29.5312 43.9792 29.5312 42.5Z" fill="#FF8C3F"/>
<line x1="19.2173" y1="4" x2="19.2173" y2="12" stroke="#FF8C3F" stroke-width="5"/>
<line x1="19.2173" y1="50" x2="19.2173" y2="58" stroke="#FF8C3F" stroke-width="5"/>
</svg>
