<svg width="30" height="63" viewBox="0 0 30 63" fill="none" xmlns="http://www.w3.org/2000/svg">
<path d="M26 33C26 31.6868 25.7155 30.3864 25.1627 29.1732C24.6099 27.9599 23.7996 26.8575 22.7782 25.9289C21.7567 25.0003 20.5441 24.2638 19.2095 23.7612C17.8749 23.2587 16.4445 23 15 23C13.5555 23 12.1251 23.2587 10.7905 23.7612C9.4559 24.2638 8.24327 25.0003 7.22182 25.9289C6.20038 26.8575 5.39013 27.9599 4.83732 29.1732C4.28452 30.3864 4 31.6868 4 33L15 33H26Z" fill="#FF8C3F"/>
<circle cx="15" cy="15" r="12.5" fill="#FF8C3F" stroke="#E5E5E5" stroke-width="5"/>
<rect x="4" y="33" width="22" height="14" fill="#FF8C3F"/>
<path d="M4 46H12V51C12 52.6569 10.6569 54 9 54H7C5.34315 54 4 52.6569 4 51V46Z" fill="#FF8C3F"/>
<path d="M18 46H26V51C26 52.6569 24.6569 54 23 54H21C19.3431 54 18 52.6569 18 51V46Z" fill="#FF8C3F"/>
<path d="M12 59C12 58.4747 11.8965 57.9546 11.6955 57.4693C11.4945 56.984 11.1999 56.543 10.8284 56.1716C10.457 55.8001 10.016 55.5055 9.53073 55.3045C9.04543 55.1035 8.52529 55 8 55C7.47471 55 6.95457 55.1035 6.46927 55.3045C5.98396 55.5055 5.54301 55.8001 5.17157 56.1716C4.80014 56.543 4.5055 56.984 4.30448 57.4693C4.10346 57.9546 4 58.4747 4 59L8 59H12Z" fill="#FF8C3F"/>
<path d="M26 59C26 58.4747 25.8965 57.9546 25.6955 57.4693C25.4945 56.984 25.1999 56.543 24.8284 56.1716C24.457 55.8001 24.016 55.5055 23.5307 55.3045C23.0454 55.1035 22.5253 55 22 55C21.4747 55 20.9546 55.1035 20.4693 55.3045C19.984 55.5055 19.543 55.8001 19.1716 56.1716C18.8001 56.543 18.5055 56.984 18.3045 57.4693C18.1035 57.9546 18 58.4747 18 59L22 59H26Z" fill="#FF8C3F"/>
<path d="M23.5154 40.5903C25.1363 40.561 26.682 39.8587 27.8285 38.6305C28.975 37.4024 29.6333 35.7438 29.6653 34.0026C29.6974 32.2614 29.1007 30.5727 28.0004 29.2906C26.9001 28.0084 25.3816 27.2324 23.7632 27.1253L23.3935 33.8519L23.5154 40.5903Z" fill="#FF8C3F"/>
<path d="M6.27162 27.1135C4.70506 27.1418 3.20662 27.799 2.0711 28.9557C0.935577 30.1124 0.245201 31.685 0.135803 33.3639C0.0264045 35.0428 0.505904 36.7066 1.47996 38.0278C2.45401 39.349 3.8521 40.2321 5.39914 40.5033L6.39352 33.8519L6.27162 27.1135Z" fill="#FF8C3F"/>
</svg>
