<svg width="70" height="42" viewBox="0 0 70 42" fill="none" xmlns="http://www.w3.org/2000/svg">
<path d="M66.5 14.5833C66.5 12.6682 65.6852 10.7719 64.1022 9.00253C62.5192 7.2332 60.1989 5.62555 57.2739 4.27136C54.3488 2.91717 50.8763 1.84297 47.0545 1.11009C43.2328 0.377209 39.1366 -8.37121e-08 35 0C30.8634 8.37122e-08 26.7672 0.377209 22.9455 1.11009C19.1237 1.84297 15.6512 2.91717 12.7261 4.27136C9.80109 5.62555 7.48082 7.2332 5.89779 9.00253C4.31477 10.7719 3.5 12.6682 3.5 14.5833L35 14.5833H66.5Z" fill="#FF8C3F"/>
<line x1="4" y1="22.8333" x2="66" y2="22.8333" stroke="#FF8C3F" stroke-width="8" stroke-linecap="round"/>
<path d="M3.5 29.1667H66.5V34C66.5 38.4183 62.9183 42 58.5 42H11.5C7.08172 42 3.5 38.4183 3.5 34V29.1667Z" fill="#FF8C3F"/>
</svg>
