<svg width="620" height="695" viewBox="0 0 620 695" fill="none" xmlns="http://www.w3.org/2000/svg">
<g clip-path="url(#clip0_1_27)">
<path d="M549.726 284.171L168.709 67.8875C168.068 67.443 167.326 67.1577 166.549 67.0561C165.771 66.9544 164.979 67.0394 164.242 67.3037L163.86 67.5261L159.704 69.8891L162.093 73.2112V325.176C162.218 327.454 162.888 329.67 164.047 331.646C165.206 333.621 166.823 335.3 168.766 336.547L549.259 552.58L549.796 555.93L554.419 553.303C555.106 552.833 555.651 552.19 555.999 551.442C556.348 550.694 556.485 549.868 556.398 549.05V295.542C556.273 293.264 555.604 291.048 554.444 289.072C553.285 287.097 551.668 285.418 549.726 284.171Z" fill="#D6D8E5"/>
<path d="M551.761 298.183V551.677C551.761 555.847 548.793 557.557 545.089 555.458L164.072 339.16C162.13 337.914 160.513 336.235 159.354 334.259C158.194 332.284 157.525 330.067 157.4 327.79V74.3095C157.4 70.1395 160.383 68.4159 164.072 70.5148L545.089 286.813C547.034 288.057 548.652 289.735 549.812 291.711C550.972 293.687 551.64 295.905 551.761 298.183Z" fill="#FAFBFC"/>
<path d="M406.378 247.545L172.427 114.731V101.47L406.378 234.284V247.545Z" fill="#E9EAF2"/>
<path d="M394.249 257.15L172.427 131.216V124.586L394.249 250.52V257.15Z" fill="#E9EAF2"/>
<path d="M368.435 254.37L172.427 143.087V136.456L368.435 247.74V254.37Z" fill="#E9EAF2"/>
<path d="M355.98 259.166L172.427 154.971V148.341L355.98 252.535V259.166Z" fill="#E9EAF2"/>
<path d="M536.084 419.822L450.117 371.019V357.758L536.084 406.547V419.822Z" fill="#E9EAF2"/>
<path d="M531.63 433.777L450.117 387.504V380.874L531.63 427.147V433.777Z" fill="#E9EAF2"/>
<path d="M522.145 440.269L450.117 399.375V392.745L522.145 433.638V440.269Z" fill="#E9EAF2"/>
<path d="M517.564 449.54L450.117 411.259V404.629L517.564 442.91V449.54Z" fill="#E9EAF2"/>
<path d="M406.378 319.436L172.427 186.621V173.361L406.378 306.175V319.436Z" fill="#E9EAF2"/>
<path d="M394.249 329.041L172.427 203.121V196.477L394.249 322.411V329.041Z" fill="#E9EAF2"/>
<path d="M368.435 326.261L172.427 214.991V208.361L368.435 319.63V326.261Z" fill="#E9EAF2"/>
<path d="M355.98 331.07L172.427 226.862V220.232L355.98 324.426V331.07Z" fill="#E9EAF2"/>
<path d="M406.378 391.341L172.427 258.526V245.252L406.378 378.08V391.341Z" fill="#E9EAF2"/>
<path d="M394.249 400.945L172.427 275.011V268.381L394.249 394.301V400.945Z" fill="#E9EAF2"/>
<path d="M368.435 398.166L172.427 286.882V280.252L368.435 391.521V398.166Z" fill="#E9EAF2"/>
<path d="M355.98 402.961L172.427 298.767V292.122L355.98 396.331V402.961Z" fill="#E9EAF2"/>
<path d="M406.378 463.231L172.427 330.417V317.156L406.378 449.971V463.231Z" fill="#E9EAF2"/>
<path d="M394.263 466.206V469.848L172.427 343.914V340.272L394.263 466.206Z" fill="#E9EAF2"/>
<path d="M533.412 391.549L452.832 345.79C452.02 345.216 451.356 344.463 450.893 343.592C450.429 342.721 450.178 341.755 450.16 340.772V262.613C450.16 260.681 451.361 259.833 452.832 260.625L533.412 306.384C534.223 306.958 534.887 307.711 535.351 308.582C535.815 309.453 536.066 310.419 536.084 311.402V389.561C536.084 391.493 534.882 392.383 533.412 391.549Z" fill="#E9EAF2"/>
<path d="M549.726 217.076L168.709 0.778391C168.098 0.358744 167.387 0.0990112 166.645 0.02363C165.903 -0.0517512 165.154 0.059698 164.468 0.347491H164.383L160.142 2.68269L162.008 5.65729V46.7596C162.008 51.5829 165.005 57.1985 168.695 59.2696L548.906 275.137L549.104 278.639L553.924 276.026L554.037 275.957L554.179 275.887C555.592 275.067 556.398 273.232 556.398 270.647V229.628C556.398 224.791 553.401 219.175 549.726 217.076Z" fill="#D6D8E5"/>
<path d="M545.089 278.125L164.072 61.8273C160.383 59.7284 157.4 54.1128 157.4 49.3173V8.34007C157.4 3.51677 160.383 1.29277 164.072 3.37777L545.089 219.62C548.778 221.719 551.776 227.335 551.776 232.13V273.149C551.776 278 548.778 280.21 545.089 278.125Z" fill="#FAFBFC"/>
<path d="M533.412 253.105L175.099 49.7064C174.293 49.1296 173.636 48.3754 173.179 47.5041C172.722 46.6328 172.479 45.6686 172.47 44.6885V29.9545C172.47 28.0224 173.657 27.1745 175.141 27.9668L533.412 231.379C534.225 231.952 534.89 232.705 535.354 233.576C535.818 234.448 536.068 235.414 536.084 236.397V251.117C536.084 253.063 534.882 253.953 533.412 253.105Z" fill="#E9EAF2"/>
<path d="M534.076 253.494L510.906 240.331V218.605L534.076 231.755C534.889 232.328 535.554 233.08 536.018 233.952C536.482 234.823 536.732 235.789 536.748 236.773V251.507C536.748 253.439 535.546 254.37 534.076 253.494Z" fill="#8C50FF"/>
<path d="M184.444 43.8267C183.648 43.1689 182.949 42.4065 182.365 41.561C181.978 40.9612 181.763 40.2696 181.743 39.5594C181.743 38.818 181.998 38.3547 182.507 38.1694C182.854 38.0877 183.216 38.0828 183.565 38.1549C183.915 38.227 184.244 38.3744 184.528 38.5864C185.649 39.2276 186.534 40.2006 187.059 41.3664C187.296 41.8822 187.421 42.4407 187.426 43.0066L186.338 42.3811C186.336 41.816 186.175 41.2625 185.871 40.7826C185.536 40.2661 185.074 39.8407 184.528 39.5455C184.354 39.4125 184.153 39.3157 183.94 39.2607C183.726 39.2058 183.503 39.1939 183.284 39.2258C182.987 39.3231 182.832 39.615 182.832 40.0876C182.847 40.5233 182.995 40.9445 183.256 41.2969C183.657 41.8694 184.132 42.3881 184.67 42.8398C185.273 43.3425 185.836 43.8909 186.352 44.48C186.703 44.9024 186.993 45.3701 187.214 45.87C187.394 46.3119 187.486 46.7839 187.483 47.26C187.483 48.0106 187.229 48.4693 186.705 48.65C185.973 48.7573 185.227 48.5776 184.627 48.1496C184.04 47.8054 183.507 47.3794 183.044 46.8847C182.583 46.3936 182.202 45.8357 181.913 45.2306C181.663 44.7032 181.528 44.1303 181.517 43.5487L182.606 44.1742C182.615 44.7634 182.808 45.3357 183.157 45.8144C183.517 46.3753 184 46.8501 184.571 47.2044C184.95 47.4764 185.419 47.6002 185.886 47.5519C186.197 47.4546 186.338 47.1766 186.338 46.7179C186.334 46.2545 186.186 45.8033 185.914 45.4252C185.487 44.8395 184.993 44.3033 184.444 43.8267Z" fill="#B0B3C1"/>
<path d="M191.243 51.9721C190.392 51.474 189.693 50.7582 189.222 49.901C188.713 49.0094 188.445 48.0043 188.444 46.982V46.7735C188.415 46.2014 188.537 45.6316 188.798 45.1194C188.89 44.9353 189.025 44.7751 189.192 44.652C189.359 44.5288 189.553 44.4461 189.759 44.4105C190.253 44.3346 190.757 44.4438 191.173 44.7163C191.969 45.168 192.613 45.8399 193.025 46.6484C193.48 47.5601 193.708 48.5656 193.689 49.5813V50.04L189.434 47.7187C189.45 48.4032 189.629 49.0745 189.957 49.6786C190.242 50.2531 190.688 50.7354 191.243 51.0686C191.518 51.2537 191.844 51.3508 192.176 51.3466C192.432 51.3242 192.671 51.2162 192.855 51.0408L193.491 51.9721C193.039 52.542 192.261 52.5559 191.243 51.9721ZM191.116 45.6893C190.967 45.576 190.787 45.5078 190.599 45.493C190.41 45.4782 190.222 45.5174 190.056 45.6059C189.886 45.7502 189.751 45.9298 189.661 46.1317C189.57 46.3337 189.526 46.5529 189.533 46.7735L192.586 48.511V48.4137C192.572 47.8409 192.422 47.2793 192.148 46.7735C191.917 46.3225 191.559 45.9462 191.116 45.6893Z" fill="#B0B3C1"/>
<path d="M198.609 56.017C198.523 55.7556 198.471 55.4848 198.453 55.2108C198.181 55.3528 197.873 55.4164 197.565 55.3942C197.258 55.3721 196.963 55.2652 196.714 55.0857C196.137 54.7397 195.652 54.2631 195.301 53.6957C194.931 53.1675 194.729 52.5435 194.721 51.9026C194.721 51.1798 194.961 50.7628 195.442 50.6377C196.167 50.5673 196.893 50.7655 197.478 51.1937L198.496 51.7636V51.2214C198.495 50.8107 198.383 50.4077 198.17 50.0538C197.939 49.6691 197.607 49.3523 197.209 49.1364C196.933 48.948 196.593 48.8732 196.262 48.928C196.144 48.9631 196.042 49.0382 195.975 49.1399C195.908 49.2417 195.879 49.3635 195.894 49.4839L194.834 48.8862C194.828 48.7349 194.853 48.5839 194.909 48.4428C194.965 48.3016 195.05 48.1734 195.159 48.0662C195.281 47.9633 195.423 47.8867 195.576 47.8412C195.729 47.7957 195.891 47.7823 196.05 47.802C196.482 47.8506 196.897 47.993 197.266 48.219C197.941 48.5812 198.51 49.1076 198.92 49.7481C199.31 50.3466 199.525 51.039 199.542 51.7497V54.9467C199.53 55.5006 199.602 56.0532 199.754 56.5869V56.6842L198.609 56.017ZM196.87 54.21C197.149 54.3813 197.474 54.4638 197.803 54.4462C197.934 54.442 198.062 54.4038 198.174 54.3355C198.286 54.2671 198.377 54.1711 198.439 54.0571V52.6671L197.619 52.1944C196.347 51.4716 195.711 51.5411 195.711 52.389C195.709 52.7653 195.822 53.1333 196.036 53.4455C196.247 53.7627 196.533 54.025 196.87 54.21Z" fill="#B0B3C1"/>
<path d="M204.065 53.2649C203.904 53.138 203.734 53.0219 203.557 52.9174C202.878 52.5282 202.407 52.5977 202.143 53.1259V58.0465L201.111 57.4488V50.4988L202.115 51.0687V51.8749C202.454 51.4579 202.935 51.4162 203.528 51.7776C203.697 51.8688 203.85 51.9861 203.981 52.1251L204.065 53.2649Z" fill="#B0B3C1"/>
<path d="M207.374 60.1593C207.513 60.2562 207.674 60.3214 207.842 60.3502C208.011 60.3791 208.184 60.3708 208.349 60.3261C208.49 60.2717 208.611 60.1757 208.694 60.0513C208.778 59.9269 208.82 59.7801 208.815 59.6311L209.791 60.1871C209.794 60.5298 209.668 60.8614 209.437 61.1184C209.321 61.2345 209.183 61.3263 209.03 61.3884C208.877 61.4505 208.712 61.4816 208.547 61.4798C208.131 61.4689 207.726 61.3489 207.374 61.1323C206.524 60.6445 205.837 59.9251 205.394 59.0612C204.895 58.137 204.638 57.1052 204.645 56.0588V55.8503C204.615 55.2841 204.732 54.7198 204.984 54.2101C205.069 54.0283 205.198 53.8704 205.362 53.7513C205.525 53.6322 205.716 53.5557 205.917 53.529C206.418 53.4965 206.915 53.6285 207.331 53.9043C208.036 54.308 208.625 54.8822 209.042 55.5723C209.475 56.2393 209.723 57.0059 209.763 57.7963L208.787 57.2403C208.747 56.749 208.592 56.2734 208.335 55.8503C208.087 55.4423 207.743 55.099 207.331 54.8495C206.803 54.5622 206.393 54.5622 206.101 54.8495C205.75 55.3168 205.593 55.8986 205.663 56.4758V56.6982C205.65 57.421 205.8 58.1376 206.101 58.7971C206.371 59.3699 206.816 59.846 207.374 60.1593Z" fill="#B0B3C1"/>
<path d="M212.053 57.546C212.307 57.338 212.627 57.2241 212.958 57.2241C213.288 57.2241 213.608 57.338 213.862 57.546C214.49 57.9152 215.001 58.4487 215.338 59.0869C215.675 59.7251 215.825 60.4429 215.771 61.16V65.747L214.725 65.1493V60.5623C214.739 60.1181 214.636 59.6778 214.428 59.2835C214.194 58.9043 213.862 58.5926 213.467 58.38C213.203 58.2127 212.887 58.1437 212.576 58.1854C212.445 58.215 212.323 58.2728 212.218 58.3545C212.113 58.4362 212.027 58.5399 211.968 58.658V63.5925L210.922 62.9948V53.2092L211.968 53.793L212.053 57.546Z" fill="#B0B3C1"/>
<path d="M217.354 66.0529C217.345 65.9729 217.356 65.892 217.385 65.817C217.415 65.742 217.462 65.6751 217.524 65.622C217.623 65.5525 217.792 65.622 218.004 65.622C218.203 65.7426 218.368 65.9098 218.485 66.1085C218.595 66.2941 218.654 66.5051 218.655 66.7201C218.664 66.7939 218.654 66.869 218.624 66.9374C218.594 67.0058 218.546 67.0652 218.485 67.1092C218.372 67.1787 218.216 67.1092 218.004 67.1092C217.801 67.0005 217.634 66.8364 217.524 66.6366C217.416 66.4602 217.357 66.2588 217.354 66.0529Z" fill="#B0B3C1"/>
<path d="M220.394 67.7763C220.383 67.6984 220.393 67.619 220.423 67.546C220.453 67.473 220.501 67.4087 220.563 67.3593C220.662 67.2759 220.832 67.3593 221.044 67.3593C221.237 67.4738 221.398 67.6345 221.512 67.8264C221.626 68.0184 221.688 68.2354 221.694 68.4574C221.704 68.5313 221.693 68.6063 221.663 68.6748C221.633 68.7432 221.586 68.8026 221.524 68.8466C221.426 68.8466 221.256 68.8466 221.044 68.8466C220.841 68.7379 220.674 68.5738 220.563 68.374C220.453 68.1935 220.394 67.987 220.394 67.7763Z" fill="#B0B3C1"/>
<path d="M223.433 69.5C223.423 69.422 223.433 69.3427 223.462 69.2697C223.492 69.1966 223.54 69.1323 223.603 69.083C223.702 68.9996 223.871 69.083 224.083 69.083C224.289 69.1883 224.457 69.3533 224.564 69.5556C224.672 69.742 224.731 69.9524 224.734 70.1672C224.743 70.243 224.732 70.32 224.702 70.3906C224.673 70.4612 224.625 70.5231 224.564 70.5703C224.465 70.5703 224.295 70.5703 224.083 70.4869C223.88 70.3781 223.713 70.214 223.603 70.0143C223.506 69.8582 223.448 69.6821 223.433 69.5Z" fill="#B0B3C1"/>
<path d="M528.987 244.306L526.725 240.484C527.087 240.119 527.364 239.682 527.54 239.202C527.716 238.723 527.785 238.212 527.743 237.704C527.654 236.087 527.179 234.513 526.356 233.11C525.533 231.707 524.386 230.514 523.007 229.628C520.378 228.141 518.257 229.35 518.257 232.325C518.341 233.961 518.821 235.553 519.657 236.97C520.493 238.387 521.661 239.587 523.064 240.47C523.868 241.002 524.853 241.202 525.806 241.026L528.082 244.904C528.351 245.349 528.775 245.599 529.044 245.446C529.312 245.293 529.241 244.765 528.987 244.306ZM525.637 239.247C525.554 239.219 525.465 239.219 525.382 239.247C525.317 239.291 525.268 239.354 525.241 239.428C524.873 239.524 524.49 239.542 524.114 239.482C523.739 239.422 523.381 239.285 523.064 239.08C522.027 238.417 521.164 237.522 520.544 236.469C519.925 235.416 519.568 234.234 519.501 233.02C519.501 230.782 521.099 229.878 523.064 231.004C524.099 231.668 524.96 232.563 525.576 233.616C526.193 234.669 526.548 235.851 526.612 237.065C526.643 237.479 526.57 237.895 526.4 238.275C526.23 238.655 525.968 238.989 525.637 239.247Z" fill="white"/>
<path d="M478.433 305.3C455.532 267.353 416.981 248.31 392.326 262.641L370.894 274.747L379.108 288.189C380.43 286.12 381.996 284.211 383.773 282.504C404.611 275.859 433.252 291.719 450.923 320.923C468.594 350.127 468.962 382.486 453.058 397.29C450.966 397.937 448.81 398.362 446.626 398.555L454.641 411.648L475.239 400.042C499.893 385.655 501.321 343.233 478.433 305.3Z" fill="#D6D8E5"/>
<path d="M457.822 316.92C434.92 278.973 396.369 259.93 371.714 274.261C347.06 288.592 345.632 331.07 368.534 369.017C391.435 406.964 429.987 426.007 454.641 411.662C479.296 397.318 480.724 354.839 457.822 316.92ZM453.058 397.304C432.206 403.948 403.579 388.088 385.908 358.87C368.237 329.652 367.869 297.321 383.773 282.518C404.611 275.873 433.252 291.733 450.923 320.937C468.594 350.141 468.962 382.486 453.058 397.29V397.304Z" fill="#B1B4C4"/>
<path d="M385.936 358.856C368.307 329.666 367.897 297.307 383.801 282.504C392.891 279.599 403.48 280.988 413.984 285.895C401.091 279.863 388.099 279.07 377.878 285.033C356.885 297.279 355.556 333.225 374.909 365.292C394.263 397.359 426.99 413.442 447.983 401.196C449.829 400.088 451.541 398.778 453.086 397.29C432.206 403.934 403.536 388.074 385.936 358.856Z" fill="#A1A5B5"/>
<path opacity="0.1" d="M450.966 320.923C433.337 291.733 404.653 275.859 383.816 282.504C367.912 297.307 368.265 329.652 385.95 358.856C403.635 388.06 432.248 403.934 453.1 397.29C468.962 382.486 468.552 350.141 450.966 320.923Z" fill="#3E7EFF"/>
<path d="M479.649 367.947L525.863 394.148V405.852L479.649 379.651V367.947Z" fill="#B1B4C4"/>
<path d="M489.955 362.095L536.168 388.296L525.863 394.148L479.649 367.947L489.955 362.095Z" fill="#D6D8E5"/>
<path d="M516.066 387.532C520.434 380.276 527.799 376.634 532.507 379.387L616.452 427.369L600.463 453.501L516.674 405.616C511.966 402.864 511.754 394.76 516.066 387.532Z" fill="#8C50FF"/>
<path d="M616.904 445.356C612.522 452.598 605.17 456.254 600.463 453.501C595.755 450.749 595.473 442.659 599.855 435.431C604.237 428.203 611.589 424.534 616.296 427.286C621.004 430.038 621.272 438.114 616.904 445.356Z" fill="#8C50FF"/>
<path opacity="0.1" d="M616.904 445.356C612.522 452.598 605.17 456.254 600.463 453.501C595.755 450.749 595.473 442.659 599.855 435.431C604.237 428.203 611.589 424.534 616.296 427.286C621.004 430.038 621.272 438.114 616.904 445.356Z" fill="black"/>
<path opacity="0.3" d="M519.134 594.531L178.548 394.76C176.909 393.843 177.135 392.216 179.001 391.146C179.967 390.618 181.046 390.32 182.151 390.277C183.256 390.233 184.356 390.445 185.362 390.896L525.891 590.667C527.531 591.598 527.305 593.21 525.439 594.281C524.479 594.8 523.41 595.093 522.316 595.136C521.222 595.179 520.132 594.972 519.134 594.531Z" fill="#D6D8E5"/>
<path opacity="0.4" d="M53.0132 695L0 665.184L79.3502 620.524L132.363 650.339L53.0132 695Z" fill="#D6D8E5"/>
<path d="M54.1159 634.882L10.2068 609.946L54.1159 585.023L98.0249 609.946L54.1159 634.882Z" fill="#D6D8E5"/>
<path d="M54.1159 684.728L10.2068 659.805V609.946L54.1159 634.883V684.728Z" fill="#B1B6C4"/>
<path d="M98.0249 659.805L54.1158 684.728V634.883L98.0249 609.946V659.805Z" fill="#C4C7D6"/>
<path d="M113.095 644.112C116.903 645.136 120.969 644.636 124.404 642.722C127.133 642.806 141.92 636.578 143.927 641.805C145.694 646.392 139.29 650.631 135.869 651.437C128.391 653.217 122.863 656.886 119.866 657.498C117.633 657.97 114.735 658.276 112.953 656.539C110.847 654.509 111.031 646.85 113.095 644.112Z" fill="#38226D"/>
<path d="M119.895 656.275C122.892 655.649 128.377 651.993 135.898 650.214C138.725 649.533 143.701 646.447 144.196 642.764C144.86 646.934 139.078 650.729 135.898 651.479C128.419 653.258 122.892 656.928 119.895 657.539C117.661 658.012 114.763 658.318 112.982 656.58C112.517 656.083 112.182 655.482 112.006 654.829C113.116 655.657 114.407 656.219 115.776 656.47C117.146 656.721 118.556 656.654 119.895 656.275Z" fill="#9C73FF"/>
<path d="M86.461 630.157C90.2702 631.171 94.3325 630.672 97.7705 628.767C100.499 628.85 115.272 622.623 117.293 627.849C119.046 632.436 112.642 636.662 109.221 637.482C101.785 639.303 96.2295 642.972 93.3032 643.57C91.0696 644.043 88.1715 644.334 86.3903 642.611C84.1849 640.554 84.3687 632.881 86.461 630.157Z" fill="#38226D"/>
<path d="M93.3032 642.319C96.3002 641.693 101.785 638.038 109.292 636.259C112.119 635.577 117.11 632.492 117.604 628.808C118.269 632.978 112.487 636.759 109.292 637.523C101.785 639.303 96.2296 642.972 93.3032 643.57C91.0696 644.043 88.1715 644.334 86.3903 642.611C85.9319 642.109 85.598 641.51 85.4149 640.859C86.5233 641.69 87.8137 642.254 89.1833 642.508C90.5528 642.761 91.9636 642.696 93.3032 642.319Z" fill="#9C73FF"/>
<path d="M44.941 612.059C56.4767 617.035 67.3479 617.827 76.24 613.129L85.429 607.917C85.9803 619.579 86.5034 630.782 86.5034 630.782C86.5034 630.782 93.5718 636.022 99.0286 631.352C99.0286 631.352 100.174 614.978 101.333 598.882L110.974 593.419C110.751 594.278 110.627 595.159 110.607 596.046C110.677 599.104 112.84 644.571 112.84 644.571C112.84 644.571 119.909 648.741 125.422 644.043C125.422 644.043 129.112 591.362 129.96 582.952C130.921 573.486 120.234 568.816 113.462 571.248C111.893 571.804 108.02 573.222 103.128 575.015C103.34 572.388 103.51 570.331 103.637 569.163C104.584 559.697 93.8969 555.041 87.1395 557.46C80.9758 559.67 39.3711 575.015 39.3711 575.015C39.617 578.944 40.0889 582.856 40.7848 586.733L24.3436 585.343C23.4106 600.563 33.4195 607.069 44.941 612.059ZM73.6388 585.871L84.6373 579.63C84.4559 580.393 84.3377 581.169 84.2839 581.951L73.6388 585.871Z" fill="#8C50FF"/>
<path d="M15.3809 539.32C15.3809 539.32 16.7945 559.419 19.424 562.311C22.0535 565.202 31.1717 567.12 31.1717 567.12L38.1695 578.435C38.1695 578.435 31.7937 542.489 30.4083 541.627C29.0229 540.766 15.3809 539.32 15.3809 539.32Z" fill="#FFCEA9"/>
<path d="M28.825 516.941C27.1228 516.165 25.189 516.033 23.3943 516.572C21.5995 517.11 20.07 518.281 19.0989 519.86C16.526 524.03 13.8541 538.403 13.6138 540.863C13.6138 540.863 17.2187 545.756 22.6331 544.936L28.825 516.941Z" fill="#EDEDED"/>
<path d="M31.2849 517.191C34.8191 517.358 37.4485 518.248 37.8868 517.191C38.2642 515.397 38.5333 513.582 38.6926 511.756C38.2826 510.742 37.9292 509.657 37.9292 509.657C33.4902 506.975 32.0907 502.263 31.5111 496.772C30.5215 487.39 35.6673 479.175 45.2238 478.188C54.1866 477.27 60.7743 483.47 62.5556 491.991C63.5028 496.161 65.383 504.139 62.8383 511.047C61.4246 514.912 59.5727 517.997 57.7349 518.581C55.9557 518.527 54.181 518.374 52.4195 518.123C52.4195 518.123 51.9388 520.736 51.6137 522.404C51.2885 524.072 51.4157 524.961 54.7945 527.019C58.1732 529.076 49.6769 533.287 44.1211 532.87C38.5653 532.453 32.3027 529.159 30.5922 525.629C28.6837 521.723 28.8533 517.08 31.2849 517.191Z" fill="#FFCEA9"/>
<path d="M120.799 578.685C120.806 579.179 120.679 579.667 120.431 580.097C120.182 580.527 119.821 580.884 119.386 581.131L92.4408 596.421C92.011 596.665 91.5235 596.794 91.0272 596.794C90.5309 596.794 90.0433 596.665 89.6135 596.421L51.7974 574.987C51.3617 574.74 51.001 574.383 50.7525 573.953C50.504 573.523 50.3767 573.035 50.3837 572.541V572.332L120.799 578.685Z" fill="#E5E5E5"/>
<path d="M119.372 581.131L92.4267 596.421C91.9972 596.666 91.5096 596.796 91.0131 596.796V578.726H120.799C120.797 579.215 120.664 579.695 120.414 580.117C120.163 580.539 119.804 580.889 119.372 581.131Z" fill="#E5E5E5"/>
<path d="M92.0027 595.031C91.694 595.202 91.3459 595.291 90.9919 595.291C90.6378 595.291 90.2898 595.202 89.9811 595.031L50.7372 572.791C50.2424 572.499 50.2424 572.041 50.7372 571.763L79.647 555.305L120.799 578.685L92.0027 595.031Z" fill="#F4F4F4"/>
<path d="M66.8673 578.685L67.0652 578.796L79.6329 585.927L86.5458 582.007L86.7296 581.896L73.964 574.654L66.8673 578.685Z" fill="#BFBFBF"/>
<path d="M67.0652 578.796L79.6328 585.927L86.5458 582.007L73.964 574.876L67.0652 578.796Z" fill="#E5E5E5"/>
<path d="M110.126 579.838L111.95 580.867C112.04 580.911 112.139 580.934 112.24 580.934C112.34 580.934 112.439 580.911 112.529 580.867L114.254 579.88C114.424 579.783 114.438 579.644 114.254 579.56L112.445 578.532C112.355 578.488 112.255 578.465 112.155 578.465C112.054 578.465 111.955 578.488 111.865 578.532L110.126 579.519C109.999 579.63 109.985 579.755 110.126 579.838Z" fill="#3A2C6D"/>
<path d="M107.567 578.379L109.377 579.408C109.467 579.452 109.566 579.475 109.667 579.475C109.767 579.475 109.866 579.452 109.956 579.408L111.681 578.421C111.865 578.323 111.879 578.184 111.681 578.101L109.872 577.072C109.782 577.028 109.682 577.005 109.582 577.005C109.481 577.005 109.382 577.028 109.292 577.072L107.567 578.045C107.44 578.143 107.44 578.24 107.567 578.379Z" fill="#3A2C6D"/>
<path d="M104.994 576.919L106.818 577.948C106.906 577.992 107.003 578.015 107.101 578.015C107.199 578.015 107.296 577.992 107.384 577.948L109.122 576.975C109.292 576.878 109.306 576.725 109.122 576.641L107.299 575.613C107.211 575.569 107.114 575.546 107.016 575.546C106.918 575.546 106.821 575.569 106.733 575.613L104.994 576.586C104.867 576.683 104.853 576.85 104.994 576.919Z" fill="#3A2C6D"/>
<path d="M102.436 575.46L104.245 576.489C104.335 576.533 104.434 576.556 104.535 576.556C104.636 576.556 104.735 576.533 104.825 576.489L106.549 575.516C106.719 575.418 106.747 575.265 106.549 575.182L104.782 574.07C104.692 574.026 104.593 574.003 104.493 574.003C104.392 574.003 104.293 574.026 104.203 574.07L102.478 575.043C102.294 575.224 102.28 575.377 102.436 575.46Z" fill="#3A2C6D"/>
<path d="M99.8627 574.07L101.672 575.099C101.762 575.143 101.861 575.166 101.962 575.166C102.063 575.166 102.162 575.143 102.252 575.099L103.991 574.112C104.16 574.014 104.174 573.861 103.991 573.778L102.209 572.68C102.119 572.636 102.02 572.613 101.92 572.613C101.819 572.613 101.72 572.636 101.63 572.68L99.9051 573.667C99.7355 573.778 99.7072 573.917 99.8627 574.07Z" fill="#3A2C6D"/>
<path d="M97.2898 572.541L99.1135 573.569C99.201 573.613 99.2979 573.636 99.3962 573.636C99.4945 573.636 99.5914 573.613 99.679 573.569L101.418 572.583C101.587 572.485 101.602 572.332 101.418 572.249L99.6083 571.22C99.5182 571.176 99.419 571.153 99.3185 571.153C99.2179 571.153 99.1187 571.176 99.0287 571.22L97.2898 572.207C97.1626 572.318 97.1485 572.457 97.2898 572.541Z" fill="#3A2C6D"/>
<path d="M94.7169 571.081L96.5264 572.124C96.6165 572.168 96.7157 572.191 96.8163 572.191C96.9168 572.191 97.016 572.168 97.1061 572.124L98.8308 571.137C99.0004 571.04 99.0287 570.901 98.8308 570.817L97.0212 569.775C96.9312 569.731 96.832 569.708 96.7314 569.708C96.6309 569.708 96.5317 569.731 96.4416 569.775L94.7169 570.762C94.6038 570.859 94.5756 570.998 94.7169 571.081Z" fill="#3A2C6D"/>
<path d="M92.1582 569.636L93.9677 570.664C94.0577 570.708 94.1569 570.731 94.2575 570.731C94.3581 570.731 94.4573 570.708 94.5473 570.664L96.2861 569.677C96.4558 569.58 96.4699 569.441 96.2861 569.358L94.4625 568.329C94.3724 568.285 94.2732 568.262 94.1727 568.262C94.0721 568.262 93.9729 568.285 93.8829 568.329L92.1582 569.316C92.0309 569.399 92.0168 569.552 92.1582 569.636Z" fill="#3A2C6D"/>
<path d="M89.5853 568.176L91.4089 569.205C91.499 569.249 91.5982 569.272 91.6987 569.272C91.7993 569.272 91.8985 569.249 91.9885 569.205L93.7132 568.218C93.8829 568.121 93.897 567.982 93.7132 567.898L91.8896 566.842C91.7996 566.798 91.7003 566.775 91.5998 566.775C91.4992 566.775 91.4 566.798 91.31 566.842L89.5711 567.829C89.458 567.94 89.4439 568.093 89.5853 568.176Z" fill="#3A2C6D"/>
<path d="M87.0265 566.717L88.836 567.745C88.926 567.79 89.0252 567.812 89.1258 567.812C89.2263 567.812 89.3255 567.79 89.4156 567.745L91.1403 566.772C91.3099 566.675 91.3382 566.522 91.1403 566.439L89.3308 565.41C89.2407 565.366 89.1415 565.343 89.041 565.343C88.9404 565.343 88.8412 565.366 88.7511 565.41L87.0265 566.383C86.8992 566.481 86.871 566.633 87.0265 566.717Z" fill="#3A2C6D"/>
<path d="M84.4536 565.257L86.2631 566.286C86.3531 566.33 86.4523 566.353 86.5529 566.353C86.6535 566.353 86.7527 566.33 86.8427 566.286L88.5815 565.313C88.7512 565.216 88.7653 565.063 88.5815 564.979L86.7579 563.951C86.6703 563.907 86.5734 563.884 86.4751 563.884C86.3768 563.884 86.28 563.907 86.1924 563.951L84.4536 564.924C84.3263 565.021 84.3122 565.174 84.4536 565.257Z" fill="#3A2C6D"/>
<path d="M81.8948 563.798L83.7044 564.826C83.7952 564.868 83.8941 564.889 83.9942 564.889C84.0942 564.889 84.1931 564.868 84.284 564.826L86.0087 563.84C86.1783 563.742 86.2066 563.589 86.0087 563.506L84.1991 562.477C84.1091 562.433 84.0099 562.41 83.9093 562.41C83.8088 562.41 83.7096 562.433 83.6195 562.477L81.8807 563.464C81.7535 563.575 81.7393 563.714 81.8948 563.798Z" fill="#3A2C6D"/>
<path d="M79.322 562.338L81.1315 563.367C81.2215 563.411 81.3207 563.434 81.4213 563.434C81.5218 563.434 81.621 563.411 81.7111 563.367L83.4499 562.38C83.6196 562.283 83.6337 562.13 83.4499 562.047L81.6404 561.018C81.5504 560.974 81.4512 560.951 81.3506 560.951C81.25 560.951 81.1508 560.974 81.0608 561.018L79.3361 562.005C79.1664 562.116 79.1664 562.255 79.322 562.338Z" fill="#3A2C6D"/>
<path d="M75.5191 560.17L78.5727 561.894C78.6591 561.941 78.7564 561.966 78.8554 561.966C78.9544 561.966 79.0518 561.941 79.1382 561.894L80.877 560.907C81.0466 560.809 81.0608 560.67 80.877 560.587L77.8234 558.849C77.7334 558.805 77.6342 558.782 77.5336 558.782C77.4331 558.782 77.3339 558.805 77.2438 558.849L75.5191 559.822C75.3919 559.948 75.3636 560.17 75.5191 560.17Z" fill="#3A2C6D"/>
<path d="M103.835 579.088L105.645 580.116C105.735 580.16 105.834 580.183 105.934 580.183C106.035 580.183 106.134 580.16 106.224 580.116L107.963 579.13C108.133 579.032 108.147 578.893 107.963 578.81L106.139 577.781C106.049 577.737 105.95 577.714 105.85 577.714C105.749 577.714 105.65 577.737 105.56 577.781L103.835 578.768C103.708 578.852 103.694 579.004 103.835 579.088Z" fill="#3A2C6D"/>
<path d="M101.262 577.628L103.072 578.657C103.162 578.701 103.261 578.724 103.362 578.724C103.462 578.724 103.561 578.701 103.651 578.657L105.39 577.67C105.56 577.573 105.574 577.434 105.39 577.35L103.567 576.322C103.477 576.278 103.377 576.255 103.277 576.255C103.176 576.255 103.077 576.278 102.987 576.322L101.262 577.309C101.135 577.392 101.121 577.545 101.262 577.628Z" fill="#3A2C6D"/>
<path d="M98.6894 576.169L100.499 577.197C100.589 577.241 100.688 577.264 100.789 577.264C100.889 577.264 100.988 577.241 101.078 577.197L102.817 576.21C102.987 576.113 103.001 575.974 102.817 575.891L100.994 574.862C100.904 574.818 100.804 574.795 100.704 574.795C100.603 574.795 100.504 574.818 100.414 574.862L98.6894 575.849C98.5621 575.932 98.548 576.085 98.6894 576.169Z" fill="#3A2C6D"/>
<path d="M96.1306 574.709L97.9401 575.738C98.0302 575.782 98.1294 575.805 98.2299 575.805C98.3305 575.805 98.4297 575.782 98.5197 575.738L100.259 574.751C100.428 574.654 100.442 574.515 100.259 574.431L98.4349 573.403C98.3474 573.359 98.2505 573.336 98.1522 573.336C98.0539 573.336 97.957 573.359 97.8695 573.403L96.1306 574.39C95.9892 574.473 95.9751 574.626 96.1306 574.709Z" fill="#3A2C6D"/>
<path d="M93.5719 573.25L95.3814 574.278C95.4704 574.326 95.57 574.351 95.6712 574.351C95.7724 574.351 95.872 574.326 95.961 574.278L97.6857 573.292C97.8553 573.194 97.8836 573.055 97.6857 572.972L95.8762 571.929C95.7861 571.885 95.6869 571.862 95.5864 571.862C95.4858 571.862 95.3866 571.885 95.2966 571.929L93.5719 572.916C93.4446 573.027 93.4164 573.166 93.5719 573.25Z" fill="#3A2C6D"/>
<path d="M90.9989 571.79L92.8084 572.819C92.8985 572.863 92.9977 572.886 93.0983 572.886C93.1988 572.886 93.298 572.863 93.3881 572.819L95.1127 571.832C95.2824 571.735 95.3107 571.596 95.1127 571.498L93.3032 570.456C93.2132 570.412 93.114 570.389 93.0134 570.389C92.9129 570.389 92.8136 570.412 92.7236 570.456L90.9989 571.443C90.8717 571.568 90.8434 571.707 90.9989 571.79Z" fill="#3A2C6D"/>
<path d="M88.4261 570.331L90.2356 571.359C90.3256 571.403 90.4248 571.426 90.5254 571.426C90.626 571.426 90.7251 571.403 90.8152 571.359L92.5399 570.373C92.7095 570.275 92.7378 570.122 92.5399 570.039L90.7304 569.01C90.6403 568.966 90.5411 568.943 90.4406 568.943C90.34 568.943 90.2408 568.966 90.1508 569.01L88.4261 569.997C88.2988 570.108 88.2705 570.247 88.4261 570.331Z" fill="#3A2C6D"/>
<path d="M85.8531 568.871L87.6485 569.9C87.7385 569.944 87.8377 569.967 87.9383 569.967C88.0389 569.967 88.1381 569.944 88.2281 569.9L89.9528 568.913C90.1366 568.816 90.1507 568.663 89.9528 568.579L88.1433 567.551C88.0532 567.507 87.954 567.484 87.8535 567.484C87.7529 567.484 87.6537 567.507 87.5637 567.551L85.839 568.538C85.7259 568.649 85.6976 568.788 85.8531 568.871Z" fill="#3A2C6D"/>
<path d="M83.2802 567.412L85.0898 568.44C85.1798 568.485 85.279 568.507 85.3796 568.507C85.4801 568.507 85.5793 568.485 85.6694 568.44L87.4082 567.454C87.5778 567.356 87.592 567.203 87.4082 567.12L85.5987 566.091C85.5086 566.047 85.4095 566.024 85.3089 566.024C85.2083 566.024 85.1091 566.047 85.0191 566.091L83.2944 567.078C83.153 567.189 83.1247 567.328 83.2802 567.412Z" fill="#3A2C6D"/>
<path d="M80.7074 565.952L82.5169 566.981C82.6069 567.025 82.7061 567.048 82.8067 567.048C82.9073 567.048 83.0065 567.025 83.0965 566.981L84.8353 565.994C85.005 565.897 85.0191 565.744 84.8353 565.661L83.0117 564.632C82.9216 564.588 82.8224 564.565 82.7219 564.565C82.6213 564.565 82.5221 564.588 82.4321 564.632L80.7074 565.619C80.5801 565.73 80.5801 565.869 80.7074 565.952Z" fill="#3A2C6D"/>
<path d="M78.1344 564.493L79.9439 565.521C80.0339 565.566 80.1331 565.588 80.2337 565.588C80.3343 565.588 80.4335 565.566 80.5235 565.521L82.2623 564.548C82.432 564.451 82.4461 564.298 82.2623 564.215L80.4387 563.186C80.3486 563.142 80.2494 563.119 80.1489 563.119C80.0483 563.119 79.9491 563.142 79.8591 563.186L78.1344 564.173C78.0071 564.34 77.993 564.409 78.1344 564.493Z" fill="#3A2C6D"/>
<path d="M75.5615 563.033L77.371 564.062C77.461 564.106 77.5602 564.129 77.6608 564.129C77.7614 564.129 77.8606 564.106 77.9506 564.062L79.6894 563.089C79.8591 562.992 79.8732 562.839 79.6894 562.755L77.8658 561.727C77.7758 561.683 77.6766 561.66 77.576 561.66C77.4754 561.66 77.3762 561.683 77.2862 561.727L75.5615 562.7C75.4343 562.797 75.4201 562.95 75.5615 563.033Z" fill="#3A2C6D"/>
<path d="M106.408 580.547L109.462 582.271C109.552 582.315 109.651 582.338 109.751 582.338C109.852 582.338 109.951 582.315 110.041 582.271L111.766 581.284C111.936 581.187 111.95 581.034 111.766 580.95L108.712 579.227C108.622 579.186 108.523 579.164 108.423 579.164C108.323 579.164 108.224 579.186 108.133 579.227L106.408 580.214C106.281 580.311 106.253 580.464 106.408 580.547Z" fill="#3A2C6D"/>
<path d="M75.3494 560.253L77.1589 561.282C77.3144 561.365 77.3144 561.504 77.1589 561.588L75.3352 562.63C75.252 562.672 75.16 562.693 75.0666 562.693C74.9733 562.693 74.8813 562.672 74.798 562.63L74.6567 562.547C74.5785 562.505 74.491 562.484 74.4022 562.484C74.3134 562.484 74.226 562.505 74.1477 562.547L72.2251 563.645C72.1419 563.686 72.0499 563.708 71.9565 563.708C71.8632 563.708 71.7712 563.686 71.6879 563.645L70.5287 562.992C70.4985 562.979 70.4727 562.957 70.4546 562.93C70.4365 562.903 70.4269 562.871 70.4269 562.839C70.4269 562.806 70.4365 562.775 70.4546 562.747C70.4727 562.72 70.4985 562.699 70.5287 562.686L72.3382 561.657L72.7199 561.449L72.9885 561.296L73.2571 561.143L74.8122 560.253C74.8954 560.212 74.9874 560.19 75.0808 560.19C75.1741 560.19 75.2661 560.212 75.3494 560.253Z" fill="#3A2C6D"/>
<path d="M100.174 585.482L101.983 586.51C102.073 586.555 102.173 586.577 102.273 586.577C102.374 586.577 102.473 586.555 102.563 586.51L104.288 585.524C104.457 585.426 104.486 585.287 104.288 585.204L102.478 584.175C102.388 584.131 102.289 584.108 102.188 584.108C102.088 584.108 101.989 584.131 101.898 584.175L100.174 585.148C100.032 585.19 100.018 585.398 100.174 585.482Z" fill="#3A2C6D"/>
<path d="M97.5443 584.022L99.3679 585.051C99.458 585.095 99.5572 585.118 99.6578 585.118C99.7583 585.118 99.8575 585.095 99.9475 585.051L101.672 584.064C101.842 583.967 101.856 583.814 101.672 583.73L99.8627 582.702C99.7727 582.658 99.6735 582.635 99.5729 582.635C99.4724 582.635 99.3732 582.658 99.2831 582.702L97.5443 583.689C97.5443 583.8 97.4595 583.939 97.5443 584.022Z" fill="#3A2C6D"/>
<path d="M95.0421 582.577L96.8657 583.605C96.9533 583.649 97.0502 583.672 97.1485 583.672C97.2468 583.672 97.3436 583.649 97.4312 583.605L99.17 582.618C99.3397 582.521 99.3538 582.382 99.17 582.299L97.3605 581.27C97.2705 581.226 97.1713 581.203 97.0707 581.203C96.9701 581.203 96.8709 581.226 96.7809 581.27L95.0421 582.257C94.9148 582.41 94.9007 582.493 95.0421 582.577Z" fill="#3A2C6D"/>
<path d="M73.243 570.192L75.0525 571.22C75.1426 571.265 75.2418 571.287 75.3423 571.287C75.4429 571.287 75.5421 571.265 75.6321 571.22L77.371 570.234C77.5406 570.136 77.5548 569.983 77.371 569.9L75.5615 568.871C75.4714 568.827 75.3722 568.804 75.2717 568.804C75.1711 568.804 75.0719 568.827 74.9819 568.871L73.2572 569.858C73.1158 569.969 73.1017 570.108 73.243 570.192Z" fill="#3A2C6D"/>
<path d="M70.6843 568.746L72.4938 569.775C72.5838 569.819 72.683 569.842 72.7836 569.842C72.8842 569.842 72.9834 569.819 73.0734 569.775L74.7981 568.788C74.9819 568.691 74.996 568.552 74.7981 568.468L72.9886 567.44C72.8986 567.396 72.7994 567.373 72.6988 567.373C72.5982 567.373 72.499 567.396 72.409 567.44L70.6843 568.426C70.5571 568.51 70.5288 568.663 70.6843 568.746Z" fill="#3A2C6D"/>
<path d="M68.1255 567.287L69.935 568.315C70.025 568.359 70.1242 568.382 70.2248 568.382C70.3253 568.382 70.4246 568.359 70.5146 568.315L72.2393 567.342C72.4089 567.245 72.4372 567.092 72.2393 567.009L70.4298 565.98C70.3397 565.936 70.2405 565.913 70.14 565.913C70.0394 565.913 69.9402 565.936 69.8502 565.98L68.1255 566.953C67.9982 567.12 67.9699 567.203 68.1255 567.287Z" fill="#3A2C6D"/>
<path d="M65.5667 565.827L67.3762 566.87C67.4663 566.914 67.5655 566.937 67.666 566.937C67.7666 566.937 67.8658 566.914 67.9558 566.87L69.6805 565.883C69.8502 565.785 69.8785 565.647 69.6805 565.563L67.8569 564.493C67.7669 564.449 67.6676 564.426 67.5671 564.426C67.4665 564.426 67.3673 564.449 67.2773 564.493L65.5526 565.48C65.4253 565.605 65.4112 565.73 65.5667 565.827Z" fill="#3A2C6D"/>
<path d="M91.8896 580.742L94.3635 582.132C94.4511 582.176 94.5479 582.199 94.6462 582.199C94.7445 582.199 94.8414 582.176 94.929 582.132L96.6678 581.159C96.8374 581.062 96.8516 580.909 96.6678 580.825L94.1939 579.435C94.1038 579.391 94.0046 579.368 93.9041 579.368C93.8035 579.368 93.7043 579.391 93.6143 579.435L91.8896 580.422C91.6916 580.52 91.6775 580.659 91.8896 580.742Z" fill="#3A2C6D"/>
<path d="M75.8018 571.651L78.2758 573.041C78.3658 573.085 78.465 573.108 78.5656 573.108C78.6662 573.108 78.7654 573.085 78.8554 573.041L80.5801 572.054C80.7497 571.957 80.778 571.818 80.5801 571.735L78.1062 570.345C78.0161 570.301 77.9169 570.278 77.8163 570.278C77.7158 570.278 77.6166 570.301 77.5265 570.345L75.8018 571.332C75.6746 571.415 75.6605 571.568 75.8018 571.651Z" fill="#3A2C6D"/>
<path d="M79.025 573.472L91.0837 580.325C91.1738 580.369 91.273 580.392 91.3735 580.392C91.4741 580.392 91.5733 580.369 91.6633 580.325L93.388 579.338C93.5577 579.241 93.5718 579.102 93.388 579.018L81.3293 572.166C81.2393 572.122 81.1401 572.099 81.0395 572.099C80.9389 572.099 80.8397 572.122 80.7497 572.166L79.025 573.153C78.8978 573.25 78.8695 573.389 79.025 573.472Z" fill="#3A2C6D"/>
<path d="M100.654 580.103L102.464 581.131C102.554 581.175 102.653 581.198 102.754 581.198C102.854 581.198 102.954 581.175 103.044 581.131L104.768 580.158C104.938 580.061 104.966 579.908 104.768 579.825L102.959 578.796C102.869 578.752 102.769 578.729 102.669 578.729C102.568 578.729 102.469 578.752 102.379 578.796L100.64 579.769C100.513 579.866 100.499 580.019 100.654 580.103Z" fill="#3A2C6D"/>
<path d="M98.0815 578.643L99.891 579.672C99.9811 579.716 100.08 579.739 100.181 579.739C100.281 579.739 100.381 579.716 100.471 579.672L102.209 578.699C102.379 578.601 102.393 578.448 102.209 578.365L100.372 577.309C100.282 577.265 100.182 577.242 100.082 577.242C99.9813 577.242 99.8821 577.265 99.7921 577.309L98.0674 578.296C97.9543 578.407 97.9401 578.56 98.0815 578.643Z" fill="#3A2C6D"/>
<path d="M95.5228 577.183L97.3323 578.212C97.4223 578.256 97.5215 578.279 97.6221 578.279C97.7226 578.279 97.8219 578.256 97.9119 578.212L99.6366 577.225C99.8062 577.128 99.8345 576.975 99.6366 576.892L97.8271 575.863C97.737 575.819 97.6378 575.796 97.5373 575.796C97.4367 575.796 97.3375 575.819 97.2475 575.863L95.5652 576.85C95.3955 576.961 95.3672 577.1 95.5228 577.183Z" fill="#3A2C6D"/>
<path d="M92.9499 575.738L94.7735 576.767C94.8611 576.811 94.9579 576.833 95.0562 576.833C95.1545 576.833 95.2514 576.811 95.339 576.767L97.0778 575.78C97.2475 575.682 97.2616 575.543 97.0778 575.46L95.2542 574.431C95.1666 574.387 95.0697 574.365 94.9714 574.365C94.8731 574.365 94.7762 574.387 94.6887 574.431L92.9499 575.418C92.8226 575.46 92.8085 575.655 92.9499 575.738Z" fill="#3A2C6D"/>
<path d="M90.391 574.278L92.2005 575.307C92.2906 575.351 92.3898 575.374 92.4903 575.374C92.5909 575.374 92.6901 575.351 92.7801 575.307L94.5048 574.334C94.6886 574.237 94.7028 574.084 94.5048 574L92.6953 572.972C92.6053 572.928 92.5061 572.905 92.4055 572.905C92.3049 572.905 92.2058 572.928 92.1157 572.972L90.391 573.945C90.2638 574.07 90.2355 574.195 90.391 574.278Z" fill="#3A2C6D"/>
<path d="M87.8181 572.819L89.6418 573.848C89.7318 573.892 89.831 573.915 89.9316 573.915C90.0322 573.915 90.1314 573.892 90.2214 573.848L91.9461 572.875C92.1158 572.777 92.1299 572.624 91.9461 572.541L90.1366 571.512C90.0466 571.468 89.9474 571.445 89.8468 571.445C89.7462 571.445 89.647 571.468 89.557 571.512L87.8181 572.499C87.6485 572.583 87.6485 572.68 87.8181 572.819Z" fill="#3A2C6D"/>
<path d="M85.2594 571.359L87.0689 572.388C87.1589 572.432 87.2581 572.455 87.3587 572.455C87.4592 572.455 87.5585 572.432 87.6485 572.388L89.3873 571.401C89.557 571.304 89.5711 571.165 89.3873 571.067L87.6485 570.025C87.5585 569.981 87.4592 569.958 87.3587 569.958C87.2581 569.958 87.1589 569.981 87.0689 570.025L85.3442 571.012C85.1321 571.137 85.118 571.29 85.2594 571.359Z" fill="#3A2C6D"/>
<path d="M82.7006 569.9L84.5101 570.929C84.6002 570.973 84.6994 570.996 84.8 570.996C84.9005 570.996 84.9997 570.973 85.0898 570.929L86.8145 569.942C86.9841 569.844 87.0124 569.705 86.8145 569.622L85.0049 568.593C84.9149 568.549 84.8157 568.526 84.7151 568.526C84.6146 568.526 84.5154 568.549 84.4253 568.593L82.7006 569.58C82.5593 569.678 82.5451 569.9 82.7006 569.9Z" fill="#3A2C6D"/>
<path d="M80.1276 568.51L81.9372 569.539C82.0272 569.583 82.1264 569.606 82.227 569.606C82.3275 569.606 82.4267 569.583 82.5168 569.539L84.2556 568.565C84.4252 568.468 84.4394 568.315 84.2556 568.232L82.4744 567.12C82.3868 567.076 82.2899 567.053 82.1916 567.053C82.0933 567.053 81.9964 567.076 81.9089 567.12L80.17 568.093C80.0004 568.218 79.9863 568.371 80.1276 568.51Z" fill="#3A2C6D"/>
<path d="M77.569 566.995L79.3785 568.023C79.4685 568.067 79.5677 568.09 79.6683 568.09C79.7688 568.09 79.868 568.067 79.9581 568.023L81.6828 567.05C81.8524 566.953 81.8807 566.8 81.6828 566.717L79.9157 565.73C79.8256 565.686 79.7264 565.663 79.6259 565.663C79.5253 565.663 79.4261 565.686 79.3361 565.73L77.6114 566.717C77.4417 566.772 77.4134 566.911 77.569 566.995Z" fill="#3A2C6D"/>
<path d="M74.996 565.535L76.8197 566.564C76.9072 566.608 77.0041 566.631 77.1024 566.631C77.2007 566.631 77.2976 566.608 77.3851 566.564L79.124 565.577C79.2936 565.48 79.3078 565.341 79.124 565.243L77.3145 564.215C77.2244 564.171 77.1252 564.148 77.0246 564.148C76.9241 564.148 76.8249 564.171 76.7348 564.215L74.996 565.202C74.9253 565.313 74.9253 565.452 74.996 565.535Z" fill="#3A2C6D"/>
<path d="M72.4372 564.09L74.2467 565.118C74.3368 565.162 74.436 565.185 74.5365 565.185C74.6371 565.185 74.7363 565.162 74.8264 565.118L76.5511 564.131C76.7348 564.034 76.749 563.895 76.5511 563.812L74.7415 562.783C74.6515 562.739 74.5523 562.716 74.4517 562.716C74.3512 562.716 74.252 562.739 74.1619 562.783L72.4372 563.77C72.31 563.853 72.2817 564.006 72.4372 564.09Z" fill="#3A2C6D"/>
<path d="M103.199 581.562L106.945 583.689C107.035 583.733 107.135 583.756 107.235 583.756C107.336 583.756 107.435 583.733 107.525 583.689L109.264 582.702C109.433 582.605 109.448 582.466 109.264 582.382L105.503 580.255C105.413 580.211 105.314 580.188 105.214 580.188C105.113 580.188 105.014 580.211 104.924 580.255L103.199 581.242C103.086 581.326 103.072 581.479 103.199 581.562Z" fill="#3A2C6D"/>
<path d="M99.4386 582.229L101.248 583.272C101.338 583.316 101.437 583.339 101.538 583.339C101.639 583.339 101.738 583.316 101.828 583.272L103.552 582.285C103.722 582.188 103.75 582.049 103.552 581.965L101.785 580.909C101.696 580.861 101.597 580.836 101.496 580.836C101.394 580.836 101.295 580.861 101.206 580.909L99.4811 581.896C99.2973 582.007 99.2831 582.146 99.4386 582.229Z" fill="#3A2C6D"/>
<path d="M96.8657 580.784L98.6753 581.812C98.7653 581.856 98.8645 581.879 98.9651 581.879C99.0656 581.879 99.1648 581.856 99.2549 581.812L100.994 580.825C101.163 580.728 101.177 580.589 100.994 580.506L99.1701 579.477C99.0825 579.433 98.9856 579.41 98.8873 579.41C98.789 579.41 98.6921 579.433 98.6046 579.477L96.8657 580.464C96.7385 580.547 96.7244 580.7 96.8657 580.784Z" fill="#3A2C6D"/>
<path d="M94.307 579.324L96.1165 580.353C96.2065 580.397 96.3057 580.42 96.4063 580.42C96.5069 580.42 96.6061 580.397 96.6961 580.353L98.4208 579.38C98.5904 579.282 98.6187 579.129 98.4208 579.046L96.6113 578.018C96.5212 577.973 96.422 577.951 96.3215 577.951C96.2209 577.951 96.1217 577.973 96.0317 578.018L94.307 578.991C94.1797 579.088 94.1515 579.241 94.307 579.324Z" fill="#3A2C6D"/>
<path d="M91.734 577.865L93.5577 578.893C93.6477 578.937 93.7469 578.96 93.8475 578.96C93.9481 578.96 94.0473 578.937 94.1373 578.893L95.862 577.906C96.0316 577.809 96.0458 577.656 95.862 577.573L94.0525 576.544C93.9624 576.5 93.8632 576.477 93.7627 576.477C93.6621 576.477 93.5629 576.5 93.4729 576.544L91.734 577.531C91.6068 577.642 91.5927 577.781 91.734 577.865Z" fill="#3A2C6D"/>
<path d="M89.1753 576.419L90.9848 577.448C91.0748 577.492 91.1741 577.515 91.2746 577.515C91.3752 577.515 91.4744 577.492 91.5644 577.448L93.3033 576.433C93.4729 576.336 93.487 576.197 93.3033 576.113L91.4937 575.085C91.4037 575.041 91.3045 575.018 91.2039 575.018C91.1034 575.018 91.0042 575.041 90.9141 575.085L89.1894 576.071C89.0622 576.183 89.0622 576.336 89.1753 576.419Z" fill="#3A2C6D"/>
<path d="M86.6165 574.96L88.426 575.988C88.5161 576.032 88.6153 576.055 88.7158 576.055C88.8164 576.055 88.9156 576.032 89.0056 575.988L90.7303 575.015C90.9 574.918 90.9283 574.765 90.7303 574.682L88.9208 573.653C88.8308 573.609 88.7316 573.586 88.631 573.586C88.5304 573.586 88.4312 573.609 88.3412 573.653L86.6165 574.626C86.4751 574.723 86.461 574.876 86.6165 574.96Z" fill="#3A2C6D"/>
<path d="M84.0435 573.5L85.8531 574.529C85.9431 574.573 86.0423 574.596 86.1429 574.596C86.2434 574.596 86.3426 574.573 86.4327 574.529L88.1715 573.556C88.3411 573.458 88.3553 573.306 88.1715 573.222L86.3479 572.194C86.2603 572.15 86.1634 572.127 86.0651 572.127C85.9668 572.127 85.8699 572.15 85.7824 572.194L84.0435 573.18C83.9163 573.264 83.9022 573.417 84.0435 573.5Z" fill="#3A2C6D"/>
<path d="M81.4848 572.041L83.2943 573.069C83.3844 573.113 83.4836 573.136 83.5842 573.136C83.6847 573.136 83.7839 573.113 83.874 573.069L85.5987 572.082C85.7683 571.985 85.7966 571.846 85.5987 571.749L83.7891 570.72C83.6991 570.676 83.5999 570.653 83.4993 570.653C83.3988 570.653 83.2996 570.676 83.2095 570.72L81.4848 571.707C81.3576 571.818 81.3293 571.957 81.4848 572.041Z" fill="#3A2C6D"/>
<path d="M78.912 570.595L80.7356 571.624C80.8256 571.668 80.9248 571.691 81.0254 571.691C81.126 571.691 81.2252 571.668 81.3152 571.624L83.0399 570.637C83.2096 570.539 83.2237 570.4 83.0399 570.317L81.2304 569.288C81.1404 569.244 81.0412 569.221 80.9406 569.221C80.84 569.221 80.7408 569.244 80.6508 569.288L78.912 570.275C78.7847 570.359 78.7706 570.512 78.912 570.595Z" fill="#3A2C6D"/>
<path d="M76.339 569.135L78.1485 570.164C78.2385 570.208 78.3377 570.231 78.4383 570.231C78.5389 570.231 78.6381 570.208 78.7281 570.164L80.4669 569.191C80.6366 569.094 80.6507 568.941 80.4669 568.857L78.6433 567.829C78.5533 567.785 78.4541 567.762 78.3535 567.762C78.2529 567.762 78.1537 567.785 78.0637 567.829L76.339 568.802C76.2259 568.899 76.2117 569.052 76.339 569.135Z" fill="#3A2C6D"/>
<path d="M73.7944 567.676L75.6039 568.705C75.6939 568.749 75.7931 568.772 75.8937 568.772C75.9943 568.772 76.0935 568.749 76.1835 568.705L77.9082 567.718C78.0778 567.62 78.1061 567.467 77.9082 567.384L76.0987 566.355C76.0086 566.311 75.9094 566.288 75.8089 566.288C75.7083 566.288 75.6091 566.311 75.5191 566.355L73.7944 567.342C73.653 567.454 73.6389 567.593 73.7944 567.676Z" fill="#3A2C6D"/>
<path d="M68.0549 564.423L73.0452 567.203C73.1327 567.247 73.2296 567.27 73.3279 567.27C73.4262 567.27 73.5231 567.247 73.6106 567.203L75.3495 566.217C75.5191 566.119 75.5333 565.98 75.3495 565.897L70.3592 563.117C70.2691 563.073 70.1699 563.05 70.0694 563.05C69.9688 563.05 69.8696 563.073 69.7796 563.117L68.0549 564.09C67.9276 564.187 67.8569 564.34 68.0549 564.423Z" fill="#3A2C6D"/>
<path d="M101.997 583.689L104.471 585.079C104.562 585.12 104.661 585.141 104.761 585.141C104.861 585.141 104.96 585.12 105.051 585.079L106.776 584.092C106.945 583.995 106.974 583.842 106.776 583.758L104.302 582.368C104.212 582.324 104.112 582.301 104.012 582.301C103.911 582.301 103.812 582.324 103.722 582.368L101.997 583.355C101.87 583.466 101.785 583.605 101.997 583.689Z" fill="#3A2C6D"/>
<path d="M120.799 578.685L79.6471 555.305V523.488L79.9581 522.765L80.2974 522.598C80.7272 522.354 81.2148 522.226 81.7111 522.226C82.2074 522.226 82.6949 522.354 83.1248 522.598L120.785 543.99C121.217 544.235 121.575 544.588 121.823 545.013C122.071 545.437 122.201 545.919 122.199 546.409V576.266C121.959 577.809 121.676 578.24 120.799 578.685Z" fill="#E5E5E5"/>
<path d="M117.025 547.841L79.6471 524.544V523.488L79.9581 522.765L80.2974 522.598C80.7272 522.354 81.2148 522.226 81.7111 522.226C82.2074 522.226 82.6949 522.354 83.1248 522.598L120.785 543.99C121.242 544.253 121.618 544.633 121.874 545.088L117.025 547.841Z" fill="#E5E5E5"/>
<path d="M80.5801 522.765L120.163 545.2C120.372 545.321 120.546 545.494 120.667 545.701C120.788 545.908 120.854 546.142 120.856 546.381V578.685L79.6471 555.305V523.335C79.6441 523.226 79.6702 523.118 79.7229 523.022C79.7756 522.925 79.853 522.844 79.9473 522.787C80.0417 522.729 80.1497 522.697 80.2608 522.693C80.3718 522.689 80.4819 522.714 80.5801 522.765Z" fill="#DCEEFF"/>
<path d="M80.5801 522.765L120.163 545.2C120.372 545.321 120.546 545.494 120.667 545.701C120.788 545.908 120.854 546.142 120.856 546.381V578.685L79.6471 555.305V523.335C79.6441 523.226 79.6702 523.118 79.7229 523.022C79.7756 522.925 79.853 522.844 79.9473 522.787C80.0417 522.729 80.1497 522.697 80.2608 522.693C80.3718 522.689 80.4819 522.714 80.5801 522.765Z" fill="#F4F4F4"/>
<path d="M120.799 578.671V577.531L79.6471 554.151V555.305L120.799 578.671Z" fill="#DBDBDB"/>
<path d="M80.7074 553.609V524.433L81.2163 524.725V553.373L80.7074 553.609Z" fill="#1E3779"/>
<path d="M81.2163 524.725V553.373L119.485 575.043V546.451L81.2163 524.725Z" fill="#3A2C6D"/>
<path d="M80.7074 553.609L119.485 575.613V575.043L81.2163 553.373L80.7074 553.609Z" fill="#031F60"/>
<path d="M36.3883 517.706C35.4128 520.096 37.9009 523.043 44.5311 525.086C51.1613 527.13 51.7692 524.503 51.7692 524.503C56.1886 526.449 60.4973 528.63 64.6761 531.036C68.6486 533.816 70.4157 541.697 70.9529 555.069C71.5749 570.553 71.6314 593.516 71.1084 597.478C71.1084 597.478 63.6583 604.761 54.1442 603.997C44.6301 603.232 28.5847 594.92 24.6971 588.54C24.7961 574.973 26.4218 572.763 24.1882 564.91C19.0706 547.021 16.3705 539.681 18.8586 527.797C20.9084 517.997 23.7782 516.774 27.7224 516.872C30.624 516.998 33.5167 517.277 36.3883 517.706Z" fill="#F4F4F4"/>
<path d="M86.6165 571.665C78.8129 573.597 76.9751 568.76 75.9431 564.715C73.5116 555.027 72.0979 546.27 70.2601 540.71C68.083 534.205 65.7929 533.162 62.5697 531.897C58.7951 530.41 55.5012 533.551 56.816 541.822C58.3003 551.622 60.2512 558.502 63.9692 570.081C64.9447 573.111 67.1217 578.49 70.3873 581.09C74.4305 584.287 80.4952 584.148 89.6983 581.91C93.6142 580.951 97.9118 578.643 105.249 575.238C107.242 574.334 108.797 573.723 112.614 571.971C116.447 570.275 119.807 567.695 122.411 564.451C124.418 561.602 124.687 560.281 124.277 559.614C123.867 558.947 122.863 558.975 121.789 560.17C120.233 562.2 118.318 563.938 116.134 565.299C116.134 565.299 118.594 562.783 119.937 561.129C121.169 559.708 122.197 558.127 122.991 556.431C123.697 554.777 122.241 552.511 121.139 553.651C120.036 554.791 119.499 556.056 117.477 558.433C116.414 559.702 115.199 560.841 113.858 561.824C115.114 560.16 116.23 558.398 117.194 556.556C118.061 555.111 118.483 553.45 118.41 551.774C118.41 550.913 117.11 549.884 115.936 551.524C114.763 553.164 114.197 555.319 111.695 557.835C109.914 559.656 108.401 560.698 108.345 560.198C108.288 559.697 109.433 558.683 110.069 556.57C110.706 554.457 110.069 552.205 108.868 551.955C107.666 551.705 107.907 551.774 106.959 553.762C106.012 555.75 104.613 557.251 103.439 560.17C102.844 562.215 101.742 564.083 100.23 565.605C98.3076 567.607 94.0524 569.9 86.6165 571.665Z" fill="#FFCEA9"/>
<path d="M59.6857 530.605C64.9022 529.84 68.592 532.148 70.8963 539.932C73.2006 547.716 74.8122 554.096 74.8122 554.096C72.7436 557.028 69.6129 559.072 66.0615 559.809C59.8271 561.282 57.5793 558.349 57.5793 558.349C57.5793 558.349 55.8405 550.204 54.752 544.658C53.6634 539.111 53.2252 531.536 59.6857 530.605Z" fill="#EDEDED"/>
<path d="M62.2021 490.781C62.2021 490.781 70.4439 478.452 52.5749 475.95C39.6821 474.129 31.3696 482.274 30.4507 491.115C29.5318 499.552 34.819 508.323 38.636 511.798C40.502 512.451 44.5028 512.827 49.7758 510.478C49.9899 508.167 50.0701 505.847 50.0161 503.528C50.0161 503.528 43.8242 490.559 62.2021 490.781Z" fill="#3A2C6D"/>
<path d="M98.0249 646.781V609.751L68.1255 626.918L79.647 650.339L98.0249 646.781Z" fill="#C4C7D6"/>
<path d="M78.4313 611.892L89.9104 605.345L98.0249 609.946L86.1217 616.59L78.4313 611.892Z" fill="#D6D8E5"/>
</g>
<defs>
<clipPath id="clip0_1_27">
<rect width="620" height="695" fill="white"/>
</clipPath>
</defs>
</svg>
