<svg width="101" height="140" viewBox="0 0 101 140" fill="none" xmlns="http://www.w3.org/2000/svg">
<path d="M34.6586 19.7189C41.9218 19.6308 48.3069 21.3172 53.8137 24.7783C59.3206 28.2395 63.6118 33.1132 66.6873 39.3995C69.6961 45.6867 71.2507 52.9567 71.3511 61.2095C71.4515 69.4624 70.0408 76.7684 67.1192 83.1274C64.1317 89.5537 59.8937 94.5311 54.4052 98.0588C48.8508 101.654 42.442 103.496 35.1789 103.584C32.3137 103.619 29.4089 103.155 26.4649 102.193C23.4542 101.231 20.7385 99.8653 18.3179 98.0973L11.6903 103.869L9.59134 103.895L9.2902 79.1363L11.3892 79.1109L17.7743 94.5093C20.1324 96.6111 22.8852 98.2751 26.0323 99.5013C29.1129 100.73 32.1524 101.324 35.1509 101.288C39.8154 101.232 43.9321 99.9839 47.5012 97.544C51.0037 95.1052 53.7265 91.5775 55.6697 86.9608C57.6129 82.3442 58.546 76.8745 58.4691 70.5518L58.2469 52.2824C58.17 45.9597 57.1374 40.5139 55.1491 35.945C53.1609 31.3762 50.4193 27.8815 46.9244 25.461C43.4302 23.1071 39.351 21.9584 34.6866 22.0151C31.2883 22.0563 27.8988 22.8296 24.5182 24.335C21.1386 25.9071 18.3313 27.9714 16.0965 30.5279L10.4947 46.6713L8.39581 46.6968L8.08374 21.0398L10.1827 21.0144L17.4412 26.0184C19.8165 24.0593 22.5303 22.5286 25.5825 21.4265C28.6348 20.3244 31.6601 19.7553 34.6586 19.7189Z" fill="#FF8C3F"/>
<g filter="url(#filter0_i_1_4)">
<path d="M78.9388 61.3749C78.9302 67.4059 83.818 72.3019 89.8562 72.3105C95.8943 72.3191 100.796 67.437 100.805 61.4061C100.813 55.3751 95.9254 50.4791 89.8873 50.4705C83.8492 50.4619 78.9474 55.344 78.9388 61.3749Z" fill="#39B2A3"/>
</g>
<path d="M66.0672 104.811C58.8036 104.857 52.4285 103.134 46.9419 99.6406C41.4552 96.1473 37.1923 91.2488 34.1535 84.945C31.1813 78.6405 29.669 71.3616 29.6166 63.1083C29.5642 54.855 31.0174 47.5573 33.9759 41.2153C37.0006 34.8063 41.2675 29.8537 46.7765 26.3576C52.3517 22.7946 58.771 20.99 66.0346 20.944C68.9 20.9259 71.8019 21.4067 74.7404 22.3865C77.7454 23.366 80.4531 24.7466 82.8635 26.5285L89.5244 20.7953L91.6235 20.782L91.7806 45.5418L89.6816 45.5551L83.3861 30.1194C81.0402 28.0044 78.2972 26.3245 75.1573 25.0797C72.0839 23.8344 69.0478 23.2213 66.0492 23.2403C61.3845 23.2699 57.2606 24.4941 53.6774 26.913C50.1607 29.3314 47.4175 32.8433 45.4475 37.4485C43.4775 42.0537 42.5125 47.5179 42.5527 53.8409L42.6687 72.1113C42.7088 78.4344 43.7097 83.8861 45.6713 88.4669C47.633 93.047 50.3542 96.557 53.835 98.9979C57.3154 101.372 61.388 102.544 66.0526 102.515C69.4511 102.493 72.845 101.739 76.2342 100.254C79.6231 98.7015 82.4422 96.6537 84.6919 94.1099L90.3874 77.9993L92.4864 77.986L92.6493 103.645L90.5502 103.658L83.321 98.611C80.9343 100.557 78.2117 102.072 75.153 103.156C72.0945 104.241 69.0658 104.792 66.0672 104.811Z" fill="#FF8C3F"/>
<path d="M83.299 52.6399C81.7276 55.7417 79.5275 63.6201 83.299 70.3199" stroke="#27DDC6" stroke-width="0.4" stroke-linecap="round"/>
<path d="M96.8351 70.3199C98.4066 67.2181 100.607 59.3397 96.8351 52.6399" stroke="#27DDC6" stroke-width="0.4" stroke-linecap="round"/>
<path d="M80.6959 67.72C83.8014 69.2895 91.6892 71.487 98.3969 67.72" stroke="#27DDC6" stroke-width="0.4" stroke-linecap="round"/>
<path d="M98.3969 55.2399C95.2916 53.6703 87.4037 51.4728 80.6959 55.2399" stroke="#27DDC6" stroke-width="0.4" stroke-linecap="round"/>
<path d="M87.4639 50.5601C85.8925 54.3916 83.6924 64.1238 87.4639 72.4001" stroke="#27DDC6" stroke-width="0.4" stroke-linecap="round"/>
<path d="M91.6289 72.4001C93.2004 68.5685 95.4005 58.8363 91.6289 50.5601" stroke="#27DDC6" stroke-width="0.4" stroke-linecap="round"/>
<path d="M78.9258 61.792H100.792" stroke="#27DDC6" stroke-width="0.4"/>
<defs>
<filter id="filter0_i_1_4" x="78.9387" y="48.4705" width="23.866" height="23.8401" filterUnits="userSpaceOnUse" color-interpolation-filters="sRGB">
<feFlood flood-opacity="0" result="BackgroundImageFix"/>
<feBlend mode="normal" in="SourceGraphic" in2="BackgroundImageFix" result="shape"/>
<feColorMatrix in="SourceAlpha" type="matrix" values="0 0 0 0 0 0 0 0 0 0 0 0 0 0 0 0 0 0 127 0" result="hardAlpha"/>
<feOffset dx="5" dy="-2"/>
<feGaussianBlur stdDeviation="1"/>
<feComposite in2="hardAlpha" operator="arithmetic" k2="-1" k3="1"/>
<feColorMatrix type="matrix" values="0 0 0 0 0 0 0 0 0 0 0 0 0 0 0 0 0 0 0.25 0"/>
<feBlend mode="normal" in2="shape" result="effect1_innerShadow_1_4"/>
</filter>
</defs>
</svg>
