<svg width="101" height="156" viewBox="0 0 101 156" fill="none" xmlns="http://www.w3.org/2000/svg">
<path d="M34.6584 35.7189C41.9215 35.6308 48.3066 37.3172 53.8135 40.7783C59.3204 44.2395 63.6115 49.1132 66.6871 55.3995C69.6958 61.6867 71.2505 68.9567 71.3509 77.2095C71.4512 85.4624 70.0406 92.7684 67.119 99.1274C64.1314 105.554 59.8935 110.531 54.4049 114.059C48.8506 117.654 42.4417 119.496 35.1787 119.584C32.3134 119.619 29.4087 119.155 26.4647 118.193C23.4539 117.231 20.7383 115.865 18.3176 114.097L11.69 119.869L9.59109 119.895L9.28996 95.1363L11.3889 95.1109L17.7741 110.509C20.1322 112.611 22.8849 114.275 26.0321 115.501C29.1127 116.73 32.1521 117.324 35.1507 117.288C39.8151 117.232 43.9319 115.984 47.501 113.544C51.0034 111.105 53.7262 107.578 55.6694 102.961C57.6127 98.3442 58.5457 92.8745 58.4689 86.5518L58.2467 68.2824C58.1697 61.9597 57.1371 56.5139 55.1489 51.945C53.1606 47.3762 50.4191 43.8815 46.9242 41.461C43.43 39.1071 39.3507 37.9584 34.6864 38.0151C31.288 38.0563 27.8986 38.8296 24.518 40.335C21.1383 41.9071 18.3311 43.9714 16.0963 46.5279L10.4945 62.6713L8.39557 62.6968L8.0835 37.0398L10.1825 37.0144L17.4409 42.0184C19.8163 40.0593 22.5301 38.5286 25.5822 37.4265C28.6345 36.3244 31.6598 35.7553 34.6584 35.7189Z" fill="white"/>
<g filter="url(#filter0_i_21_208)">
<path d="M78.9388 77.3749C78.9302 83.4059 83.818 88.3019 89.8562 88.3105C95.8943 88.3191 100.796 83.437 100.805 77.4061C100.813 71.3751 95.9254 66.4791 89.8873 66.4705C83.8492 66.4619 78.9474 71.344 78.9388 77.3749Z" fill="#39B2A3"/>
</g>
<path d="M66.0672 120.811C58.8036 120.857 52.4285 119.134 46.9419 115.641C41.4552 112.147 37.1923 107.249 34.1535 100.945C31.1813 94.6405 29.669 87.3616 29.6166 79.1083C29.5642 70.855 31.0174 63.5573 33.9759 57.2153C37.0006 50.8063 41.2675 45.8537 46.7765 42.3576C52.3517 38.7946 58.771 36.99 66.0346 36.944C68.9 36.9259 71.8019 37.4067 74.7404 38.3865C77.7454 39.366 80.4531 40.7466 82.8635 42.5285L89.5244 36.7953L91.6235 36.782L91.7806 61.5418L89.6816 61.5551L83.3861 46.1194C81.0402 44.0044 78.2972 42.3245 75.1573 41.0797C72.0839 39.8344 69.0478 39.2213 66.0492 39.2403C61.3845 39.2699 57.2606 40.4941 53.6774 42.913C50.1607 45.3314 47.4175 48.8433 45.4475 53.4485C43.4775 58.0537 42.5125 63.5179 42.5527 69.8409L42.6687 88.1113C42.7088 94.4344 43.7097 99.8861 45.6713 104.467C47.633 109.047 50.3542 112.557 53.835 114.998C57.3154 117.372 61.388 118.544 66.0526 118.515C69.4511 118.493 72.845 117.739 76.2342 116.254C79.6231 114.701 82.4422 112.654 84.6919 110.11L90.3874 93.9993L92.4864 93.986L92.6493 119.645L90.5502 119.658L83.321 114.611C80.9343 116.557 78.2117 118.072 75.153 119.156C72.0945 120.241 69.0658 120.792 66.0672 120.811Z" fill="white"/>
<path d="M83.2993 68.6399C81.7278 71.7417 79.5277 79.6201 83.2993 86.3199" stroke="#27DDC6" stroke-width="0.4" stroke-linecap="round"/>
<path d="M96.835 86.3199C98.4065 83.2181 100.607 75.3397 96.835 68.6399" stroke="#27DDC6" stroke-width="0.4" stroke-linecap="round"/>
<path d="M80.6963 83.72C83.8018 85.2895 91.6896 87.487 98.3973 83.72" stroke="#27DDC6" stroke-width="0.4" stroke-linecap="round"/>
<path d="M98.3973 71.2399C95.2919 69.6703 87.404 67.4728 80.6963 71.2399" stroke="#27DDC6" stroke-width="0.4" stroke-linecap="round"/>
<path d="M87.4643 66.5601C85.8929 70.3916 83.6927 80.1238 87.4643 88.4001" stroke="#27DDC6" stroke-width="0.4" stroke-linecap="round"/>
<path d="M91.6289 88.4001C93.2004 84.5685 95.4005 74.8363 91.6289 66.5601" stroke="#27DDC6" stroke-width="0.4" stroke-linecap="round"/>
<path d="M78.9258 77.792H100.792" stroke="#27DDC6" stroke-width="0.4"/>
<defs>
<filter id="filter0_i_21_208" x="78.9385" y="64.4705" width="23.8662" height="23.8401" filterUnits="userSpaceOnUse" color-interpolation-filters="sRGB">
<feFlood flood-opacity="0" result="BackgroundImageFix"/>
<feBlend mode="normal" in="SourceGraphic" in2="BackgroundImageFix" result="shape"/>
<feColorMatrix in="SourceAlpha" type="matrix" values="0 0 0 0 0 0 0 0 0 0 0 0 0 0 0 0 0 0 127 0" result="hardAlpha"/>
<feOffset dx="5" dy="-2"/>
<feGaussianBlur stdDeviation="1"/>
<feComposite in2="hardAlpha" operator="arithmetic" k2="-1" k3="1"/>
<feColorMatrix type="matrix" values="0 0 0 0 0 0 0 0 0 0 0 0 0 0 0 0 0 0 0.25 0"/>
<feBlend mode="normal" in2="shape" result="effect1_innerShadow_21_208"/>
</filter>
</defs>
</svg>
