<svg width="535" height="399" viewBox="0 0 535 399" fill="none" xmlns="http://www.w3.org/2000/svg">
<g clip-path="url(#clip0_143_408)">
<path d="M512.631 346.349C513.221 328.738 505.169 311.239 489.506 305.238C493.238 323.237 490.07 343.484 480.739 361.26C477.105 368.183 472.389 375.603 473.684 382.665C474.49 387.059 477.61 390.464 481.355 392.623C485.1 394.782 489.464 395.855 493.774 396.907L494.537 397.658C504.154 381.585 512.042 363.961 512.631 346.349Z" fill="#F2F2F2"/>
<path d="M489.288 305.569C497.141 316.549 501.147 330.63 500.277 345.111C500.151 348.317 499.541 351.486 498.469 354.509C497.287 357.542 495.409 360.255 492.987 362.427C490.747 364.516 488.249 366.426 486.484 368.956C485.613 370.192 485 371.59 484.681 373.068C484.362 374.546 484.344 376.073 484.629 377.558C485.286 381.077 487.216 383.97 489.211 386.718C491.426 389.769 493.781 392.896 494.299 396.901C494.362 397.386 495.132 397.153 495.069 396.668C494.168 389.702 488.135 385.651 485.941 379.352C484.917 376.414 484.825 373.02 486.693 369.968C488.327 367.299 490.902 365.328 493.185 363.23C495.579 361.134 497.497 358.549 498.809 355.649C500.026 352.671 500.754 349.516 500.966 346.305C501.531 339.378 500.969 332.406 499.3 325.66C497.507 318.233 494.313 311.218 489.89 304.992C489.619 304.613 489.019 305.192 489.288 305.569L489.288 305.569Z" fill="white"/>
<path d="M500.809 340.384C503.333 339.801 505.612 338.444 507.33 336.503C509.047 334.563 510.118 332.135 510.392 329.557C510.431 329.056 509.655 329.081 509.616 329.583C509.364 331.983 508.367 334.244 506.765 336.048C505.163 337.852 503.036 339.108 500.683 339.639C500.634 339.647 500.586 339.664 500.544 339.69C500.501 339.716 500.464 339.751 500.435 339.791C500.405 339.832 500.384 339.878 500.373 339.927C500.362 339.976 500.36 340.026 500.369 340.075C500.377 340.125 500.395 340.172 500.422 340.214C500.448 340.257 500.483 340.293 500.524 340.322C500.565 340.351 500.612 340.371 500.661 340.382C500.709 340.392 500.76 340.393 500.809 340.384V340.384Z" fill="white"/>
<path d="M494.242 361.499C492.298 360.149 490.663 358.403 489.442 356.374C488.222 354.346 487.444 352.083 487.161 349.732C487.097 349.248 486.326 349.48 486.391 349.964C486.69 352.41 487.504 354.763 488.779 356.87C490.054 358.978 491.76 360.791 493.786 362.19C494.173 362.454 494.627 361.761 494.242 361.499Z" fill="white"/>
<path d="M496.622 318.84C495.748 319.251 494.785 319.431 493.822 319.365C492.86 319.299 491.93 318.987 491.121 318.46C490.738 318.191 490.285 318.884 490.665 319.152C491.561 319.73 492.588 320.072 493.651 320.148C494.714 320.224 495.779 320.03 496.748 319.585C496.848 319.552 496.935 319.486 496.994 319.397C497.052 319.308 497.079 319.202 497.07 319.096C497.061 319.048 497.042 319.002 497.013 318.962C496.985 318.921 496.948 318.888 496.905 318.864C496.863 318.839 496.815 318.824 496.766 318.82C496.717 318.816 496.668 318.823 496.622 318.84Z" fill="white"/>
<path d="M434.123 335.771C434.357 335.946 434.59 336.122 434.823 336.304C437.942 338.681 440.833 341.344 443.458 344.259C443.665 344.48 443.87 344.708 444.07 344.936C450.356 352.126 455.064 360.557 457.889 369.683C459.047 373.404 459.9 377.214 460.44 381.074C461.197 386.457 461.577 392.414 464.048 396.849C464.299 397.313 464.583 397.76 464.896 398.184L493.421 398.669C493.491 398.637 493.56 398.612 493.631 398.58L494.761 398.652C494.747 398.447 494.729 398.236 494.715 398.031C494.707 397.912 494.693 397.792 494.686 397.673C494.679 397.594 494.671 397.515 494.67 397.442C494.668 397.415 494.665 397.389 494.662 397.369C494.66 397.296 494.651 397.23 494.648 397.164C494.546 395.98 494.438 394.796 494.316 393.612C494.317 393.605 494.317 393.605 494.312 393.598C493.38 384.58 491.668 375.667 488.607 367.49C488.515 367.244 488.424 366.992 488.319 366.746C486.931 363.097 485.211 359.583 483.181 356.248C482.073 354.444 480.861 352.706 479.552 351.041C476.163 346.755 472.028 343.118 467.345 340.305C457.97 334.664 446.453 332.367 434.997 335.521C434.704 335.602 434.417 335.683 434.123 335.771Z" fill="#F2F2F2"/>
<path d="M434.129 336.139C447.743 339.199 459.845 346.809 467.882 357.669C469.706 360.007 471.1 362.649 472 365.474C472.8 368.416 472.79 371.52 471.971 374.456C471.263 377.308 470.217 380.19 470.197 383.068C470.181 384.477 470.497 385.869 471.121 387.132C471.746 388.395 472.66 389.492 473.788 390.333C476.51 392.444 479.973 393.335 483.406 394.083C487.219 394.913 491.2 395.712 494.093 398.254C494.443 398.562 494.982 397.927 494.632 397.62C489.6 393.198 481.807 393.975 476.039 390.816C473.347 389.341 471.203 386.976 470.997 383.663C470.817 380.765 471.894 377.794 472.635 374.909C473.472 372.039 473.595 369.009 472.993 366.081C472.252 363.206 470.97 360.498 469.216 358.103C465.406 352.721 460.654 348.074 455.191 344.386C448.865 340.08 441.779 337.017 434.31 335.361C433.84 335.256 433.662 336.034 434.129 336.139Z" fill="white"/>
<path d="M465.478 353.973C469.308 350.095 470.104 344.293 467.36 340.422C467.089 340.041 466.419 340.531 466.689 340.913C469.26 344.539 468.494 349.892 464.913 353.518C464.536 353.9 465.103 354.353 465.478 353.974V353.973Z" fill="white"/>
<path d="M472.517 373.031C470.121 373.294 467.698 373.067 465.392 372.364C463.087 371.661 460.949 370.496 459.107 368.941C458.755 368.634 458.216 369.269 458.567 369.575C460.488 371.19 462.716 372.397 465.117 373.123C467.518 373.85 470.042 374.081 472.535 373.801C473.037 373.754 473.017 372.984 472.517 373.031L472.517 373.031Z" fill="white"/>
<path d="M448.677 341.149C448.107 342.004 447.355 342.723 446.475 343.255C445.596 343.786 444.61 344.116 443.588 344.223C443.085 344.264 443.106 345.034 443.605 344.993C444.734 344.871 445.823 344.505 446.796 343.919C447.769 343.334 448.604 342.544 449.242 341.604C449.311 341.53 449.348 341.431 449.345 341.329C449.343 341.228 449.301 341.131 449.229 341.06C449.143 341.001 449.038 340.978 448.936 340.995C448.833 341.011 448.741 341.066 448.677 341.149V341.149Z" fill="white"/>
<path d="M425.639 326.35C425.699 326.283 425.244 326.225 424.402 326.177V297.864H383.565V300.143H365.183C363.027 300.146 360.961 301.004 359.437 302.529C357.913 304.055 357.055 306.123 357.053 308.28V319.99C357.054 322.148 357.911 324.217 359.436 325.743C360.96 327.268 363.027 328.126 365.183 328.128L384.023 328.152L392.296 328.165H392.865L401.144 328.177L424.266 328.208H426.258C426.549 327.88 425.361 326.678 425.639 326.35Z" fill="#3F3D56"/>
<path d="M426.078 326.876C424.728 328.847 423.634 328.775 422.676 327.499C422.173 326.766 421.767 325.97 421.469 325.132C418.559 317.663 416.656 300.53 411.168 306.521C410.085 307.704 408.984 308.878 407.88 310.039C405.827 312.199 403.683 314.545 401.558 316.617C401.557 316.623 401.606 316.393 401.599 316.398C400.551 317.424 401.341 308.55 400.926 306.053C400.838 305.514 400.694 305.273 400.465 305.488C400.447 305.245 400.436 305.004 400.438 304.759C400.435 304.373 400.455 303.987 400.496 303.604C400.53 303.251 400.578 302.895 400.645 302.536L418.587 206.512C419.06 203.997 420.322 201.698 422.189 199.949C424.056 198.2 426.432 197.093 428.971 196.788C430.173 196.654 431.389 196.697 432.579 196.915L435.845 197.526C437.134 197.768 438.375 198.221 439.516 198.869L439.522 198.87C441.703 200.101 443.445 201.984 444.505 204.255C445.565 206.526 445.889 209.072 445.433 211.537L426.078 326.876Z" fill="#3F3D56"/>
<path d="M272.867 381.574L264.443 377.542L276.014 342.303L288.446 348.254L272.867 381.574Z" fill="#A0616A"/>
<path d="M329.339 375.892C328.726 376.276 328.113 376.654 327.495 377.032C326.263 377.787 325.02 378.53 323.776 379.261C323.151 379.626 322.52 379.992 321.895 380.351V380.37L321.858 380.376L321.846 380.382L320.893 380.617L319.525 377.001L318.894 375.335L318.003 372.976L316.37 368.659L307.77 345.933L321.14 342.632L321.642 344.682H321.648L321.895 345.697L326.567 364.659L327.52 368.536L327.55 368.653L328.126 370.969L328.621 372.976L329.172 375.217L329.339 375.892Z" fill="#A0616A"/>
<path d="M409.101 296.081C408.254 297.443 407.388 298.799 406.515 300.143C404.894 302.645 403.23 305.11 401.522 307.537C401.522 307.543 401.516 307.543 401.51 307.55C400.513 308.473 399.413 309.278 398.23 309.946C398.181 309.983 398.125 310.008 398.076 310.039C397.205 310.521 396.278 310.893 395.316 311.148C394.97 311.234 394.617 311.321 394.27 311.408C393.021 311.705 391.783 311.959 390.552 312.182C388.361 312.572 386.196 312.85 384.043 313.024C383.869 313.042 383.696 313.055 383.523 313.067C374.669 313.717 366.05 312.671 357.054 310.956C352.611 310.113 348.076 309.104 343.38 308.057C341.845 307.711 340.304 307.37 338.745 307.029C338.628 307.005 338.504 306.974 338.38 306.949C336.153 306.46 333.888 305.977 331.568 305.5C328.648 304.899 325.634 304.317 322.504 303.766L322.726 308.181C322.912 311.578 323.617 314.926 324.818 318.108C326.154 322.022 327.212 325.118 324.978 331.565L323.902 334.686C324.46 336.235 324.651 337.894 324.461 339.53C324.271 341.166 323.705 342.736 322.807 344.117L322.59 344.445L331.568 367.178L332.15 368.652H327.552L321.897 368.658H312.313L298.484 340.891L297.822 339.565V339.497L299.252 286.136C299.27 285.665 299.307 285.188 299.369 284.717C299.621 282.578 300.296 280.51 301.356 278.635C302.415 276.759 303.836 275.113 305.538 273.794C307.168 272.518 309.036 271.58 311.032 271.034C313.027 270.487 315.112 270.344 317.164 270.611L321.897 271.224L331.568 272.475L338.38 273.36L338.516 273.379L358.607 275.98L360.048 270.097L360.314 269.998L368.772 266.895L398.026 256.163L398.1 256.139L400.025 255.433L400.254 255.804C400.322 255.916 400.39 256.027 400.452 256.139C402.353 259.551 403.902 263.149 405.073 266.877C407.043 272.966 408.665 279.162 409.931 285.436C409.986 285.708 410.036 285.956 410.079 286.179L410.098 286.247C410.116 286.352 410.128 286.42 410.135 286.439C410.809 289.25 410.339 292.681 409.101 296.081Z" fill="#2F2E41"/>
<path d="M410.335 276.416C410.242 276.019 410.125 275.617 410.001 275.227C409.019 272.272 407.874 269.374 406.573 266.545C405.113 263.325 403.362 259.875 401.277 256.141C400.268 254.333 399.183 252.452 398.022 250.5C397.441 249.521 396.836 248.524 396.209 247.509C396.185 247.462 396.158 247.416 396.129 247.372L395.949 247.075L367.005 250.952L356.227 252.395L355.583 257.77L355.429 259.101C355.422 259.101 355.422 259.101 355.429 259.107L354.996 262.736V262.742L354.42 267.536L354.371 267.529L338.376 265.455L321.893 263.318L313.039 262.173C310.987 261.905 308.903 262.049 306.907 262.595C304.911 263.142 303.043 264.08 301.413 265.356C299.712 266.676 298.291 268.321 297.232 270.197C296.172 272.072 295.497 274.14 295.244 276.28C295.189 276.713 295.152 277.159 295.133 277.599L286.78 297.409C281.782 309.256 278.599 321.791 277.338 334.589L271.213 354.189L272.085 354.269L285.066 355.477L288.494 355.799L296.043 344.77C296.903 343.513 297.719 342.218 298.48 340.893C299.733 338.729 300.847 336.487 301.815 334.18L318.144 295.291C319.406 295.508 320.656 295.714 321.893 295.91C327.617 296.839 333.111 297.597 338.376 298.183C355.497 300.096 370.322 300.245 383.519 298.622C387.225 298.17 390.808 297.576 394.267 296.839C395.535 296.573 396.787 296.286 398.022 295.978C398.313 295.91 398.598 295.842 398.882 295.768C401.439 295.108 403.79 293.816 405.72 292.012C407.649 290.207 409.096 287.947 409.927 285.438C410.919 282.531 411.06 279.401 410.335 276.416Z" fill="#2F2E41"/>
<path d="M275.557 375.819L266.443 371.447L265.014 370.76L262.731 376.37L246.792 379.882C246.004 380.054 245.292 380.475 244.76 381.082C244.228 381.689 243.903 382.45 243.834 383.255C243.765 384.059 243.955 384.865 244.376 385.553C244.797 386.242 245.427 386.779 246.174 387.084L261.747 393.443L266.691 388.991L265.478 394.967L271.344 397.363L277.772 376.884L275.557 375.819Z" fill="#2F2E41"/>
<path d="M331.566 367.178L332.148 368.652H331.566V367.178Z" fill="#2F2E41"/>
<path d="M222.67 260.002C222.67 256.683 221.556 253.989 220.189 253.983H117.176C115.803 253.989 114.695 256.683 114.689 260.002V396.638C114.689 396.946 114.574 397.243 114.367 397.471C114.161 397.7 113.876 397.843 113.57 397.873C112.569 397.969 111.569 398.058 110.568 398.141C110.543 398.141 110.519 398.147 110.494 398.147C109.949 398.197 109.405 398.234 108.86 398.277H108.854C108.574 397.759 108.297 397.236 108.024 396.709C107.931 396.531 107.883 396.334 107.883 396.133V252.194C107.883 251.277 107.92 250.354 107.982 249.444C108.07 248.194 108.225 246.95 108.446 245.716C109.492 239.963 111.855 236.068 114.54 236.056H222.819C223.211 236.058 223.598 236.14 223.957 236.297C224.485 236.531 224.962 236.865 225.362 237.282C225.904 237.846 226.368 238.482 226.741 239.171C228.066 241.505 229.012 244.985 229.346 249.035C229.346 249.072 229.353 249.11 229.353 249.147C229.439 250.15 229.482 251.172 229.476 252.194L229.563 265.464L229.619 273.378L229.786 298.211L229.847 307.029L230.12 397.565C230.12 397.893 229.989 398.208 229.757 398.441C229.525 398.673 229.21 398.803 228.882 398.803H223.908C223.579 398.803 223.265 398.673 223.033 398.441C222.801 398.208 222.67 397.893 222.67 397.565L222.67 260.002Z" fill="#3F3D56"/>
<path d="M149.241 199.241L142.075 230.796L137.497 235.815H134.193L147.808 178.443L148.481 188.19V188.197L149.241 199.241Z" fill="#3F3D56"/>
<path d="M183.725 231.488L141.688 231.222L137.958 231.197L135.297 231.179L132.197 231.16H132.172C131.723 231.161 131.292 231.339 130.972 231.656L125.738 236.894C125.622 237.009 125.527 237.143 125.459 237.291C125.426 237.333 125.399 237.378 125.379 237.427C125.265 237.69 125.219 237.978 125.242 238.264C125.266 238.549 125.36 238.825 125.515 239.066C125.67 239.307 125.882 239.506 126.133 239.646C126.383 239.786 126.664 239.861 126.95 239.867H181.405C181.732 239.866 182.052 239.772 182.327 239.597C182.603 239.421 182.824 239.172 182.964 238.876L183.391 237.947L184.27 236.059L185.266 233.928C185.372 233.702 185.427 233.454 185.427 233.204C185.424 232.752 185.245 232.319 184.926 231.998C184.608 231.677 184.177 231.494 183.725 231.488Z" fill="#3F3D56"/>
<path opacity="0.17" d="M183.391 237.946L182.961 238.878C182.821 239.173 182.601 239.422 182.326 239.597C182.051 239.772 181.732 239.866 181.406 239.868H126.949C126.662 239.862 126.382 239.787 126.132 239.647C125.881 239.508 125.669 239.308 125.514 239.067C125.359 238.826 125.266 238.551 125.242 238.265C125.219 237.979 125.266 237.692 125.38 237.429C125.399 237.38 125.425 237.334 125.458 237.293L183.391 237.946Z" fill="black"/>
<path opacity="0.17" d="M148.481 188.19V188.197L136.823 235.815H134.193L147.808 178.443L148.481 188.19Z" fill="black"/>
<path d="M162.787 196.914L146.286 71.2603C146.225 70.7893 145.98 70.3616 145.605 70.0713L134.245 55.8407L133.224 55.0542C132.846 54.7676 132.371 54.6409 131.9 54.7012L130.192 54.9304C129.721 54.9911 129.294 55.2367 129.004 55.6129C128.714 55.9892 128.585 56.4654 128.646 56.9368L145.747 187.13V187.136L146.793 195.1L148.037 204.556V204.568L149.967 219.282C149.998 219.534 150.083 219.777 150.216 219.993C150.35 220.209 150.529 220.393 150.741 220.533C150.949 220.676 151.185 220.774 151.433 220.819C151.682 220.863 151.937 220.855 152.182 220.793L153.265 220.521C153.68 220.414 154.043 220.164 154.292 219.815L154.775 219.127L154.997 218.805L162.472 198.184C162.734 197.816 162.847 197.362 162.787 196.914Z" fill="#3F3D56"/>
<path opacity="0.17" d="M134.242 55.8414L154.999 218.808L154.774 219.127L154.293 219.813C154.045 220.162 153.681 220.413 153.265 220.519L152.181 220.792C151.936 220.853 151.68 220.861 151.431 220.816C151.182 220.772 150.946 220.675 150.737 220.532C150.527 220.39 150.351 220.205 150.218 219.99C150.085 219.774 150 219.533 149.966 219.282L128.648 56.9389C128.586 56.4675 128.714 55.9908 129.003 55.6137C129.293 55.2365 129.72 54.9898 130.191 54.9277L131.903 54.7024C132.135 54.671 132.371 54.6862 132.598 54.7471C132.824 54.808 133.036 54.9133 133.221 55.057L134.242 55.8414Z" fill="black"/>
<path d="M134.854 60.502L145.869 76.238L158.961 175.94L151.863 190.033L134.854 60.502Z" fill="#6C63FF"/>
<path d="M371.585 397.766L364.031 397.908L385.027 324.91L392.581 327.245L371.585 397.766Z" fill="#3F3D56"/>
<path d="M421.128 397.906L413.58 397.764L392.865 328.165L392.58 327.249L397.425 325.75C398.384 325.769 399.38 325.781 400.407 325.793L401.143 328.178L421.128 397.906Z" fill="#3F3D56"/>
<path d="M328.394 368.967L318.844 372.279L317.345 372.797L319.667 378.391L310.81 392.11C310.372 392.788 310.162 393.589 310.21 394.395C310.258 395.201 310.563 395.97 311.08 396.591C311.596 397.211 312.297 397.65 313.081 397.843C313.864 398.036 314.689 397.973 315.434 397.664L330.971 391.216L331.354 384.57L334.693 389.671L340.546 387.243L330.717 368.164L328.394 368.967Z" fill="#2F2E41"/>
<path d="M270.431 164.071C270.884 164.954 271.524 165.727 272.308 166.335C273.091 166.943 273.999 167.372 274.966 167.592C275.933 167.811 276.936 167.815 277.905 167.605C278.874 167.394 279.785 166.973 280.574 166.372L300.655 179.714L300.693 167.178L281.618 156.43C280.521 155.171 279.001 154.358 277.345 154.145C275.689 153.933 274.013 154.336 272.634 155.277C271.255 156.219 270.269 157.635 269.863 159.255C269.457 160.876 269.659 162.589 270.431 164.071V164.071Z" fill="#A0616A"/>
<path d="M285.434 169.865L294.803 159.197L332.951 181.864L383.521 177.229C386.021 177 388.54 177.324 390.9 178.179C393.261 179.034 395.404 180.399 397.178 182.176C398.952 183.954 400.313 186.1 401.165 188.463C402.017 190.826 402.339 193.348 402.108 195.849C401.685 200.367 399.489 204.533 396.001 207.432C392.514 210.331 388.019 211.727 383.504 211.314L326.55 206.038L285.434 169.865Z" fill="#E6E6E6"/>
<path d="M402.806 170.029L402.718 169.919L378.816 167.559L362.667 196.03C348.785 213.015 358.873 224.729 359.477 226.471L354.658 248.707L355.738 256.149L356.278 258.359L411.281 287.124L399.976 249.43L411.014 215.055C413.461 207.455 413.993 199.366 412.561 191.511C411.128 183.655 407.777 176.275 402.806 170.029Z" fill="#E6E6E6"/>
<path d="M428.994 144.975C429.007 145.279 429.013 145.582 429.013 145.88C429.007 149.159 428.227 152.391 426.735 155.311C425.243 158.231 423.081 160.757 420.427 162.681C417.774 164.605 414.703 165.873 411.465 166.382C408.228 166.891 404.916 166.626 401.801 165.609L397.983 164.364C397.952 164.352 397.915 164.346 397.884 164.334L391.592 162.278C391.571 162.012 391.575 161.744 391.604 161.479C382.218 157.466 395.193 144.282 398.416 134.38C398.917 132.838 381.686 133.99 382.503 132.671C382.323 132.578 382.144 132.485 381.977 132.392C384.887 127.795 389.19 124.249 394.257 122.272C399.324 120.296 404.89 119.993 410.141 121.406C410.277 121.437 410.42 121.481 410.556 121.518C422.782 121.821 429.204 130.348 429.204 141.421C429.204 142.609 429.134 143.796 428.994 144.975Z" fill="#2F2E41"/>
<path d="M418.4 149.335C416.759 154.363 413.191 158.533 408.479 160.929C403.767 163.324 398.298 163.749 393.273 162.11C392.704 161.924 392.147 161.714 391.603 161.478C387.03 159.517 383.356 155.914 381.303 151.378C379.25 146.842 378.967 141.702 380.509 136.968C380.998 135.461 381.667 134.018 382.501 132.67C385.063 128.518 389.056 125.451 393.726 124.047C398.396 122.644 403.417 123.003 407.84 125.056C412.263 127.11 415.78 130.714 417.726 135.188C419.673 139.663 419.912 144.696 418.4 149.335Z" fill="#A0616A"/>
<path d="M397.981 164.364C397.951 164.352 397.913 164.346 397.883 164.333L391.59 162.277C391.569 162.011 391.574 161.744 391.602 161.479C391.789 159.405 393.244 157.234 395.196 154.889C396.453 153.39 397.327 151.607 397.742 149.695C398.157 147.782 398.102 145.798 397.58 143.911C397.058 142.025 396.086 140.294 394.747 138.868C393.408 137.442 391.743 136.363 389.895 135.724C389.841 135.705 389.787 135.686 389.734 135.668C387.256 134.839 384.839 133.838 382.501 132.67C382.321 132.578 382.142 132.485 381.975 132.392C380.403 131.525 379.265 130.658 378.764 129.828C379.513 127.528 380.708 125.398 382.28 123.559C383.851 121.721 385.77 120.211 387.925 119.115C390.08 118.019 392.43 117.358 394.84 117.171C397.251 116.984 399.674 117.274 401.972 118.025L405.623 119.214C410.227 120.711 414.053 123.97 416.265 128.28C418.839 130.125 420.868 132.838 422.459 136.039C430.453 152.103 415.021 169.839 397.981 164.364Z" fill="#2F2E41"/>
<path d="M410.029 261.514C410.029 262.603 409.699 263.667 409.082 264.564C408.466 265.462 407.592 266.152 406.576 266.542C406.094 266.727 405.588 266.84 405.073 266.877C404.937 266.889 404.794 266.895 404.658 266.895H394.27V317.34C394.115 317.545 393.954 317.749 393.793 317.953C392.902 319.093 391.999 320.232 391.083 321.353C390.885 321.601 390.687 321.842 390.495 322.084C390.192 322.449 389.895 322.814 389.598 323.174C389.493 323.297 389.394 323.415 389.295 323.539C388.788 324.146 388.28 324.753 387.761 325.36V325.366C387.754 325.372 387.754 325.372 387.754 325.378L387.495 325.675C387.08 326.165 386.665 326.66 386.238 327.149C385.659 326.827 385.146 326.396 384.729 325.88C384.47 325.569 384.25 325.228 384.073 324.864C384.067 324.858 384.067 324.852 384.061 324.839C384.053 324.825 384.047 324.811 384.042 324.796C383.695 324.072 383.517 323.277 383.522 322.474V266.895H360.233C359.546 266.899 358.864 266.767 358.228 266.505C357.427 266.185 356.714 265.675 356.152 265.019C355.589 264.364 355.194 263.582 354.999 262.74V262.734C354.709 261.511 354.862 260.225 355.432 259.105C355.426 259.099 355.426 259.099 355.432 259.099C355.672 258.61 355.992 258.164 356.378 257.78V257.774C356.378 257.767 356.378 257.767 356.385 257.761C356.886 257.248 357.485 256.84 358.145 256.562C358.806 256.283 359.516 256.139 360.233 256.139H404.658C406.082 256.139 407.448 256.706 408.455 257.714C409.462 258.722 410.028 260.089 410.029 261.514Z" fill="#3F3D56"/>
<path d="M439.611 157.399C437.438 156.992 435.205 157.017 433.042 157.474C430.878 157.931 428.825 158.809 427.001 160.06C425.176 161.311 423.616 162.909 422.409 164.763C421.201 166.617 420.371 168.691 419.964 170.866V170.866C419.247 174.709 419.886 178.682 421.773 182.105C423.661 185.528 426.678 188.188 430.308 189.63L425.246 216.724L435.811 218.702L447.007 158.783L439.611 157.399Z" fill="#3F3D56"/>
<path d="M424.402 137.476C429.187 137.476 433.065 133.594 433.065 128.806C433.065 124.018 429.187 120.137 424.402 120.137C419.618 120.137 415.74 124.018 415.74 128.806C415.74 133.594 419.618 137.476 424.402 137.476Z" fill="#2F2E41"/>
<path d="M525.381 153.7C521.622 154.955 517.604 155.168 513.642 155.237C502.115 155.436 490.296 154.426 479.805 149.642C469.314 144.858 460.282 135.766 457.95 124.466C456.944 119.596 457.062 114.171 453.996 110.258C450.357 105.614 443.043 104.981 437.948 107.953C432.853 110.926 429.878 116.711 429.013 122.549L426.961 125.889C427.009 128.039 429.333 129.468 431.473 129.67C433.612 129.872 435.763 129.282 437.905 129.441C442.601 129.791 446.429 133.811 447.798 138.32C449.167 142.829 448.508 147.707 447.337 152.271C446.165 156.836 444.492 161.289 443.823 165.954C443.155 170.619 443.608 175.681 446.351 179.512C448.409 182.388 451.546 184.294 454.735 185.819C462.455 189.51 470.911 191.401 479.468 191.348C488.024 191.295 496.456 189.301 504.131 185.514C511.805 181.728 518.521 176.248 523.773 169.488C529.026 162.728 532.677 154.863 534.453 146.486C532.658 150.021 529.14 152.445 525.381 153.7Z" fill="#2F2E41"/>
<path d="M359.071 337.028H341.428C340.457 337.027 339.52 336.676 338.787 336.039C338.055 335.402 337.576 334.522 337.44 333.56C336.351 325.537 336.351 317.403 337.44 309.38C337.575 308.43 338.043 307.559 338.762 306.923C339.48 306.288 340.401 305.929 341.36 305.913C346.911 303.422 352.889 303.423 359.131 305.912C359.713 305.92 360.285 306.055 360.809 306.308C361.333 306.561 361.795 306.925 362.163 307.376C362.547 307.844 362.821 308.392 362.967 308.981C363.112 309.569 363.125 310.182 363.004 310.776C361.587 317.835 361.587 325.105 363.004 332.164C363.125 332.758 363.112 333.371 362.967 333.959C362.821 334.547 362.547 335.096 362.163 335.564C361.788 336.023 361.317 336.392 360.782 336.645C360.247 336.898 359.662 337.029 359.071 337.028Z" fill="#6C63FF"/>
<path d="M357.223 315.131H342.373C342.127 315.131 341.891 315.033 341.717 314.859C341.543 314.685 341.445 314.449 341.445 314.202C341.445 313.956 341.543 313.72 341.717 313.546C341.891 313.371 342.127 313.273 342.373 313.273H357.223C357.469 313.273 357.705 313.371 357.879 313.546C358.053 313.72 358.151 313.956 358.151 314.202C358.151 314.449 358.053 314.685 357.879 314.859C357.705 315.033 357.469 315.131 357.223 315.131Z" fill="white"/>
<path d="M357.223 322.562H342.373C342.127 322.562 341.891 322.464 341.717 322.29C341.543 322.116 341.445 321.879 341.445 321.633C341.445 321.387 341.543 321.15 341.717 320.976C341.891 320.802 342.127 320.704 342.373 320.704H357.223C357.469 320.704 357.705 320.802 357.879 320.976C358.053 321.15 358.151 321.387 358.151 321.633C358.151 321.879 358.053 322.116 357.879 322.29C357.705 322.464 357.469 322.562 357.223 322.562Z" fill="white"/>
<path d="M357.223 329.994H342.373C342.127 329.994 341.891 329.896 341.717 329.721C341.543 329.547 341.445 329.311 341.445 329.065C341.445 328.818 341.543 328.582 341.717 328.408C341.891 328.234 342.127 328.136 342.373 328.136H357.223C357.469 328.136 357.705 328.234 357.879 328.408C358.053 328.582 358.151 328.818 358.151 329.065C358.151 329.311 358.053 329.547 357.879 329.721C357.705 329.896 357.469 329.994 357.223 329.994Z" fill="white"/>
<path d="M148.246 140.2V140.199C148.265 140.048 148.342 139.911 148.46 139.816C148.579 139.721 148.729 139.676 148.88 139.691L244.339 139.946C244.49 139.932 244.64 139.977 244.758 140.072C244.875 140.167 244.951 140.305 244.969 140.455V140.457C244.951 140.607 244.874 140.745 244.755 140.839C244.637 140.934 244.486 140.979 244.335 140.964L148.876 140.709C148.726 140.724 148.575 140.678 148.458 140.583C148.34 140.488 148.264 140.351 148.246 140.2Z" fill="#3F3D56"/>
<path d="M173.489 199.043L169.436 203.505C169.248 203.663 169.018 203.764 168.775 203.795C168.531 203.827 168.284 203.788 168.062 203.683C167.39 203.445 166.792 203.034 166.327 202.493C163.431 199.202 160.179 196.243 156.631 193.669C156.048 193.258 155.583 192.701 155.282 192.054C155.16 191.846 155.098 191.608 155.104 191.366C155.109 191.125 155.182 190.89 155.313 190.687C155.353 188.246 156.727 186.733 159.397 186.191C159.865 185.703 160.923 185.889 161.871 186.628C165.77 189.673 169.434 193.008 172.833 196.604C173.667 197.487 173.95 198.536 173.489 199.043Z" fill="#6C63FF"/>
<path d="M163.072 189.438L159.661 193.194C159.543 193.323 159.259 193.257 159.026 193.045C158.794 192.833 158.701 192.557 158.819 192.427L162.23 188.672C162.348 188.542 162.632 188.609 162.864 188.82C163.097 189.032 163.19 189.308 163.072 189.438Z" fill="white"/>
<path d="M166.441 192.504L163.03 196.259C162.912 196.389 162.628 196.322 162.396 196.111C162.163 195.899 162.07 195.622 162.188 195.493L165.599 191.737C165.717 191.608 166.001 191.674 166.234 191.886C166.466 192.097 166.559 192.374 166.441 192.504Z" fill="white"/>
<path d="M169.811 195.57L166.399 199.325C166.281 199.455 165.997 199.389 165.765 199.177C165.532 198.965 165.439 198.689 165.557 198.559L168.968 194.804C169.086 194.674 169.37 194.74 169.603 194.952C169.835 195.164 169.928 195.44 169.811 195.57Z" fill="white"/>
<path d="M535 398.263C535 398.36 534.981 398.456 534.945 398.546C534.908 398.635 534.853 398.717 534.785 398.785C534.717 398.854 534.635 398.908 534.546 398.945C534.456 398.982 534.361 399.001 534.264 399H0.736294C0.541017 399 0.353736 398.923 0.215654 398.784C0.0775724 398.646 0 398.459 0 398.263C0 398.068 0.0775724 397.88 0.215654 397.742C0.353736 397.604 0.541017 397.526 0.736294 397.526H534.264C534.361 397.526 534.456 397.545 534.546 397.582C534.635 397.619 534.717 397.673 534.785 397.742C534.853 397.81 534.908 397.891 534.945 397.981C534.981 398.07 535 398.166 535 398.263Z" fill="#CCCCCC"/>
<path d="M364.24 314.455C365.094 313.95 365.826 313.264 366.387 312.445C366.947 311.626 367.321 310.694 367.482 309.715C367.644 308.736 367.589 307.733 367.321 306.778C367.053 305.822 366.58 304.937 365.933 304.184L378.049 283.33L365.544 284.036L355.956 303.731C354.764 304.902 354.044 306.469 353.93 308.136C353.816 309.803 354.317 311.454 355.339 312.776C356.36 314.098 357.83 314.999 359.47 315.308C361.111 315.618 362.808 315.314 364.24 314.455V314.455Z" fill="#A0616A"/>
<path d="M369.129 299.123L357.934 290.395L378.278 250.937L370.655 200.688C370.278 198.204 370.452 195.668 371.165 193.259C371.878 190.85 373.112 188.628 374.779 186.75C376.446 184.872 378.506 183.385 380.813 182.393C383.119 181.402 385.615 180.931 388.124 181.013C392.655 181.168 396.94 183.115 400.039 186.427C403.137 189.74 404.796 194.147 404.652 198.682L402.768 255.898L369.129 299.123Z" fill="#E6E6E6"/>
<path d="M272.037 174.79H234.232C233.218 174.789 232.247 174.386 231.531 173.669C230.814 172.952 230.411 171.979 230.41 170.965V120.865C230.411 119.851 230.814 118.879 231.531 118.162C232.247 117.445 233.218 117.041 234.232 117.04H272.037C273.05 117.041 274.021 117.445 274.738 118.162C275.454 118.879 275.857 119.851 275.858 120.865V170.965C275.857 171.979 275.454 172.952 274.738 173.669C274.021 174.386 273.05 174.789 272.037 174.79Z" fill="#E6E6E6"/>
<path d="M269.379 171.602H236.889C235.99 171.601 235.127 171.243 234.491 170.607C233.855 169.97 233.497 169.107 233.496 168.206V123.623C233.497 122.723 233.855 121.86 234.491 121.223C235.127 120.587 235.99 120.229 236.889 120.228H269.379C270.279 120.229 271.141 120.587 271.777 121.223C272.414 121.86 272.771 122.723 272.772 123.623V168.206C272.771 169.107 272.414 169.97 271.777 170.607C271.141 171.243 270.279 171.601 269.379 171.602Z" fill="white"/>
<path d="M266.138 128.701H240.13C240.018 128.701 239.908 128.679 239.805 128.637C239.701 128.594 239.608 128.532 239.529 128.453C239.45 128.374 239.387 128.28 239.344 128.177C239.301 128.074 239.279 127.964 239.279 127.852C239.279 127.74 239.301 127.63 239.344 127.526C239.387 127.423 239.45 127.33 239.529 127.251C239.608 127.172 239.701 127.109 239.805 127.067C239.908 127.024 240.018 127.003 240.13 127.003H266.138C266.249 127.003 266.36 127.024 266.463 127.067C266.566 127.109 266.66 127.172 266.739 127.251C266.818 127.33 266.881 127.423 266.923 127.526C266.966 127.63 266.988 127.74 266.988 127.852C266.988 127.964 266.966 128.074 266.923 128.177C266.881 128.28 266.818 128.374 266.739 128.453C266.66 128.532 266.566 128.594 266.463 128.637C266.36 128.679 266.249 128.701 266.138 128.701Z" fill="#6C63FF"/>
<path d="M266.137 132.055H240.13C239.905 132.055 239.689 131.966 239.53 131.807C239.371 131.648 239.281 131.432 239.281 131.206C239.281 130.981 239.371 130.765 239.53 130.606C239.689 130.447 239.905 130.357 240.13 130.357H266.137C266.249 130.357 266.359 130.379 266.462 130.422C266.565 130.465 266.658 130.527 266.737 130.606C266.816 130.685 266.878 130.779 266.921 130.882C266.964 130.985 266.986 131.095 266.986 131.206C266.986 131.318 266.964 131.428 266.921 131.531C266.878 131.634 266.816 131.728 266.737 131.807C266.658 131.886 266.565 131.948 266.462 131.991C266.359 132.033 266.249 132.055 266.137 132.055Z" fill="#6C63FF"/>
<path d="M251.403 135.41H240.13C239.905 135.41 239.689 135.32 239.53 135.161C239.371 135.002 239.281 134.786 239.281 134.561C239.281 134.336 239.371 134.12 239.53 133.961C239.689 133.801 239.905 133.712 240.13 133.712H251.403C251.628 133.712 251.844 133.801 252.003 133.961C252.162 134.12 252.252 134.336 252.252 134.561C252.252 134.786 252.162 135.002 252.003 135.161C251.844 135.32 251.628 135.41 251.403 135.41Z" fill="#6C63FF"/>
<path d="M266.138 142.435H240.13C240.018 142.435 239.908 142.414 239.805 142.371C239.701 142.329 239.608 142.266 239.529 142.187C239.45 142.108 239.387 142.015 239.344 141.912C239.301 141.808 239.279 141.698 239.279 141.586C239.279 141.475 239.301 141.364 239.344 141.261C239.387 141.158 239.45 141.064 239.529 140.985C239.608 140.906 239.701 140.844 239.805 140.801C239.908 140.759 240.018 140.737 240.13 140.737H266.138C266.249 140.737 266.36 140.759 266.463 140.801C266.566 140.844 266.66 140.906 266.739 140.985C266.818 141.064 266.881 141.158 266.923 141.261C266.966 141.364 266.988 141.475 266.988 141.586C266.988 141.698 266.966 141.808 266.923 141.912C266.881 142.015 266.818 142.108 266.739 142.187C266.66 142.266 266.566 142.329 266.463 142.371C266.36 142.414 266.249 142.435 266.138 142.435Z" fill="#E4E4E4"/>
<path d="M266.138 145.79H240.13C240.018 145.79 239.908 145.768 239.805 145.726C239.701 145.683 239.608 145.621 239.529 145.542C239.45 145.463 239.387 145.369 239.344 145.266C239.301 145.163 239.279 145.052 239.279 144.941C239.279 144.829 239.301 144.718 239.344 144.615C239.387 144.512 239.45 144.418 239.529 144.34C239.608 144.261 239.701 144.198 239.805 144.156C239.908 144.113 240.018 144.091 240.13 144.092H266.138C266.249 144.091 266.36 144.113 266.463 144.156C266.566 144.198 266.66 144.261 266.739 144.34C266.818 144.418 266.881 144.512 266.923 144.615C266.966 144.718 266.988 144.829 266.988 144.941C266.988 145.052 266.966 145.163 266.923 145.266C266.881 145.369 266.818 145.463 266.739 145.542C266.66 145.621 266.566 145.683 266.463 145.726C266.36 145.768 266.249 145.79 266.138 145.79Z" fill="#E4E4E4"/>
<path d="M251.403 149.144H240.13C239.905 149.144 239.689 149.055 239.53 148.896C239.371 148.736 239.281 148.52 239.281 148.295C239.281 148.07 239.371 147.854 239.53 147.695C239.689 147.536 239.905 147.446 240.13 147.446H251.403C251.628 147.446 251.844 147.536 252.003 147.695C252.162 147.854 252.252 148.07 252.252 148.295C252.252 148.52 252.162 148.736 252.003 148.896C251.844 149.055 251.628 149.144 251.403 149.144Z" fill="#E4E4E4"/>
<path d="M266.137 156.17H240.129C239.905 156.17 239.689 156.08 239.53 155.921C239.371 155.762 239.281 155.546 239.281 155.321C239.281 155.095 239.371 154.88 239.53 154.72C239.689 154.561 239.905 154.472 240.129 154.472H266.137C266.362 154.472 266.578 154.561 266.737 154.72C266.896 154.88 266.986 155.095 266.986 155.321C266.986 155.546 266.896 155.762 266.737 155.921C266.578 156.08 266.362 156.17 266.137 156.17Z" fill="#E4E4E4"/>
<path d="M266.137 159.524H240.13C239.905 159.524 239.689 159.435 239.53 159.275C239.371 159.116 239.281 158.9 239.281 158.675C239.281 158.45 239.371 158.234 239.53 158.075C239.689 157.916 239.905 157.826 240.13 157.826H266.137C266.362 157.826 266.578 157.916 266.737 158.075C266.896 158.234 266.986 158.45 266.986 158.675C266.986 158.9 266.896 159.116 266.737 159.275C266.578 159.435 266.362 159.524 266.137 159.524Z" fill="#E4E4E4"/>
<path d="M251.403 162.879H240.13C239.905 162.879 239.689 162.789 239.53 162.63C239.371 162.471 239.281 162.255 239.281 162.03C239.281 161.804 239.371 161.589 239.53 161.429C239.689 161.27 239.905 161.181 240.13 161.181H251.403C251.628 161.181 251.844 161.27 252.003 161.429C252.162 161.589 252.252 161.804 252.252 162.03C252.252 162.255 252.162 162.471 252.003 162.63C251.844 162.789 251.628 162.879 251.403 162.879Z" fill="#E4E4E4"/>
<path d="M143.389 108.036L244.808 21.2139H244.969V22.4883H245.279L144.217 109.005L143.389 108.036Z" fill="#2F2E41"/>
<path d="M213.412 207.744H166.779C166.051 207.745 165.352 208.035 164.837 208.551C164.322 209.066 164.032 209.765 164.031 210.494V239.553C164.032 240.282 164.322 240.981 164.837 241.496C165.352 242.012 166.051 242.302 166.779 242.303H213.412C214.14 242.302 214.839 242.012 215.354 241.496C215.869 240.981 216.159 240.282 216.16 239.553V210.494C216.159 209.765 215.869 209.066 215.354 208.551C214.839 208.035 214.141 207.745 213.412 207.744Z" fill="white"/>
<path d="M213.412 207.744H166.779C166.051 207.745 165.352 208.035 164.837 208.551C164.322 209.066 164.032 209.765 164.031 210.494V239.553C164.032 240.282 164.322 240.981 164.837 241.496C165.352 242.012 166.051 242.302 166.779 242.303H213.412C214.14 242.302 214.839 242.012 215.354 241.496C215.869 240.981 216.159 240.282 216.16 239.553V210.494C216.159 209.765 215.869 209.066 215.354 208.551C214.839 208.035 214.141 207.745 213.412 207.744ZM214.314 228.617C214.303 231.575 213.133 234.411 211.057 236.517C208.981 238.622 206.163 239.829 203.207 239.879C198.476 239.941 205.825 239.965 200.118 239.965C187.069 239.965 173.462 239.84 168.385 239.759C167.717 239.745 167.081 239.471 166.612 238.994C166.144 238.517 165.88 237.876 165.877 237.207V210.497C165.878 210.257 165.973 210.028 166.142 209.858C166.311 209.689 166.54 209.593 166.779 209.592H213.41C213.649 209.592 213.879 209.687 214.048 209.856C214.217 210.026 214.313 210.255 214.314 210.494V228.617Z" fill="#CACACA"/>
<path d="M207.259 226.29H171.73C171.416 226.29 171.109 226.192 170.852 226.011C170.595 225.829 170.4 225.573 170.294 225.277L164.807 209.869C164.725 209.639 164.7 209.393 164.733 209.151C164.766 208.909 164.856 208.678 164.997 208.479C165.137 208.279 165.323 208.116 165.54 208.004C165.756 207.891 165.997 207.832 166.24 207.832L213.891 207.747H213.893C214.145 207.747 214.394 207.81 214.616 207.929C214.838 208.049 215.026 208.222 215.165 208.433C215.304 208.643 215.388 208.885 215.411 209.137C215.433 209.388 215.393 209.641 215.294 209.873L215.211 209.837L215.294 209.873L208.66 225.366C208.542 225.64 208.347 225.874 208.098 226.038C207.849 226.203 207.557 226.29 207.259 226.29Z" fill="#CACACA"/>
<path d="M190.068 230.09C192.165 230.09 193.864 228.388 193.864 226.29C193.864 224.191 192.165 222.49 190.068 222.49C187.971 222.49 186.271 224.191 186.271 226.29C186.271 228.388 187.971 230.09 190.068 230.09Z" fill="#3F3D56"/>
<path d="M87.9407 379.242C87.1982 384.716 83.4797 389.658 78.6969 392.884C77.5573 393.655 76.3548 394.328 75.102 394.897C73.7247 395.519 72.304 396.04 70.8513 396.457C64.4784 398.321 57.5919 398.402 50.891 398.439C44.1159 398.482 37.3428 398.526 30.5718 398.569C25.2321 398.6 19.7192 398.6 14.7879 396.55C14.7142 396.523 14.6419 396.492 14.5714 396.457C9.72668 394.364 5.59974 389.763 5.7173 384.499C5.76456 382.645 6.28879 380.834 7.23937 379.242C7.86861 378.172 8.62483 377.182 9.49156 376.294C12.1769 373.507 15.9016 371.321 19.3913 369.563C25.1455 366.671 31.6484 362.918 33.3313 356.973C33.509 356.348 33.6291 355.707 33.6902 355.06C34.0862 350.972 32.1001 347.214 29.5695 343.851C29.322 343.517 29.0621 343.182 28.796 342.848C28.2268 342.136 27.639 341.436 27.0574 340.767C26.8099 340.482 26.5624 340.191 26.3087 339.9C23.9699 337.188 21.6125 334.29 20.3813 331.051C19.8512 329.695 19.5562 328.258 19.5089 326.803C19.3727 321.545 25.2445 316.251 29.687 318.734C31.865 318.523 34.0429 318.306 36.2208 318.084C38.8938 317.817 41.5543 317.551 44.2211 317.279H44.2272C44.8274 317.229 45.4152 317.167 46.003 317.105C51.553 316.554 57.099 315.999 62.6407 315.439C65.1033 315.198 67.999 315.105 69.6015 317C71.3463 319.068 70.443 322.338 68.7167 324.425C66.9904 326.505 64.5959 327.979 62.9749 330.134C60.8774 332.921 60.3885 336.445 60.9887 339.9C61.1625 340.903 61.4234 341.89 61.7683 342.848C62.3741 344.559 63.2132 346.178 64.2618 347.659C67.9 352.762 73.2891 356.28 78.0719 360.323C82.8609 364.373 87.3406 369.513 87.9964 375.743C88.015 375.922 88.0335 376.108 88.0397 376.294C88.1092 377.277 88.076 378.265 87.9407 379.242Z" fill="#E6E6E6"/>
<path d="M49.03 322.538C44.2021 317.765 40.0897 312.317 36.8208 306.365C33.5618 300.443 31.1546 294.09 29.6706 287.494C28.1661 280.8 27.6678 273.919 28.1922 267.078C29.2795 253.146 34.4234 239.838 42.9876 228.8C43.5106 228.129 44.0461 227.468 44.5941 226.817C45.205 226.089 46.2432 227.137 45.6365 227.86C36.897 238.348 31.4218 251.17 29.8882 264.741C28.779 275.111 30.0175 285.597 33.5118 295.422C37.006 305.248 42.6663 314.159 50.0724 321.495C50.749 322.163 49.7065 323.206 49.03 322.538V322.538Z" fill="#E6E6E6"/>
<path d="M42.3945 230.053C42.9913 229.829 43.5758 229.574 44.1453 229.288C44.1741 229.333 44.2022 229.378 44.231 229.422L42.3945 230.053Z" fill="#E6E6E6"/>
<path d="M53.7742 217.038C53.5329 218.39 53.0973 219.7 52.481 220.927C50.7792 224.348 48.0686 227.162 44.7159 228.99C44.5303 229.089 44.3385 229.194 44.1467 229.287C43.9177 228.928 43.6826 228.569 43.4599 228.21C41.8806 225.856 40.7131 223.251 40.0073 220.506C39.2896 217.28 39.6794 213.657 41.746 211.075C43.8064 208.492 47.7415 207.334 50.5939 209.006C51.4174 209.499 52.1162 210.175 52.6357 210.982C52.3511 211.335 52.0664 211.682 51.7818 212.035C51.7568 212.067 51.7299 212.098 51.7014 212.127C51.4539 212.437 51.2002 212.741 50.9527 213.05C49.9194 214.32 48.8923 215.595 47.8591 216.859C49.3154 217.127 50.7975 217.229 52.2768 217.162C52.3944 217.156 52.5181 217.15 52.6357 217.143C53.0131 217.119 53.3967 217.088 53.7742 217.038Z" fill="#E6E6E6"/>
<path d="M32.9053 242.434L32.5093 247.599L32.4041 248.999C32.2927 248.943 32.1752 248.887 32.0638 248.831C28.2152 246.919 24.8187 244.207 22.101 240.877C19.3834 237.546 17.4072 233.673 16.3047 229.517C15.936 228.075 15.6775 226.607 15.5312 225.126C17.5359 224.816 19.5468 224.501 21.5515 224.191C19.9285 222.078 17.8955 220.315 15.5746 219.008C16.1038 213.839 17.9698 208.898 20.9885 204.672C21.5082 213.329 30.5665 218.834 33.8829 226.841C34.9003 229.347 35.3407 232.05 35.1715 234.75C35.0023 237.449 34.2277 240.076 32.9053 242.434Z" fill="#E6E6E6"/>
<path d="M31.1846 287.795C30.702 287.82 30.2194 287.832 29.743 287.826C25.6255 287.8 21.5566 286.933 17.786 285.277C14.0154 283.621 10.6224 281.212 7.81511 278.197C5.54262 275.706 3.71544 272.843 2.41357 269.731C2.45688 269.725 2.494 269.719 2.53732 269.713C4.54201 269.403 6.5529 269.087 8.5576 268.778C6.42847 266.001 3.59871 263.842 0.359382 262.523C-0.0787132 259.725 -0.112056 256.878 0.260383 254.07C4.78951 261.458 15.376 262.053 22.0645 267.552C25.2544 270.213 27.4289 273.894 28.2209 277.974C28.4184 278.982 28.524 280.006 28.5365 281.033C28.5427 281.281 28.5427 281.522 28.5365 281.764L28.685 282.098L31.1846 287.795Z" fill="#E6E6E6"/>
<path d="M51.0832 296.347C49.8024 297.92 48.5216 299.505 47.2408 301.078C48.8155 301.368 50.4196 301.463 52.0175 301.363C50.5986 306.449 47.8746 311.076 44.1162 314.782C43.7636 315.129 43.3985 315.47 43.0273 315.792C42.953 315.86 42.8726 315.928 42.7983 315.996L42.4642 315.049L42.458 315.042L40.5647 309.797C38.1626 307.38 36.4991 304.328 35.7695 300.998V300.985C35.3258 299.036 35.2232 297.025 35.4664 295.04C36.5244 286.439 43.7883 278.704 41.9816 270.227C45.9625 273.453 49.0512 277.647 50.9532 282.407C49.92 283.677 48.8929 284.953 47.8596 286.216C49.316 286.484 50.798 286.586 52.2773 286.519C52.7955 288.616 53.0778 290.763 53.1188 292.922C53.125 293.232 53.125 293.536 53.1188 293.845C52.4691 294.65 51.8133 295.449 51.1636 296.254C51.1386 296.287 51.1117 296.318 51.0832 296.347Z" fill="#E6E6E6"/>
<path d="M277.605 42.2687H239.8C238.787 42.2675 237.815 41.8642 237.099 41.1472C236.383 40.4301 235.98 39.458 235.979 38.4439V3.82475C235.98 2.81072 236.383 1.83854 237.099 1.12151C237.815 0.404481 238.787 0.0011506 239.8 0H277.605C278.618 0.00114568 279.589 0.40448 280.306 1.12151C281.022 1.83854 281.425 2.81071 281.426 3.82475V38.4439C281.425 39.458 281.022 40.4301 280.306 41.1472C279.589 41.8642 278.618 42.2675 277.605 42.2687Z" fill="#E6E6E6"/>
<path d="M274.948 39.0807H242.458C241.558 39.0797 240.695 38.7216 240.059 38.0849C239.423 37.4483 239.065 36.5851 239.064 35.6848V6.58346C239.065 5.6831 239.423 4.81992 240.059 4.18327C240.695 3.54663 241.558 3.18852 242.458 3.1875H274.948C275.847 3.18852 276.71 3.54663 277.346 4.18327C277.982 4.81992 278.34 5.6831 278.341 6.58346V35.6847C278.34 36.5851 277.982 37.4483 277.346 38.0849C276.71 38.7216 275.847 39.0797 274.948 39.0807Z" fill="white"/>
<path d="M271.706 11.6598H245.698C245.587 11.6601 245.476 11.6383 245.373 11.5958C245.27 11.5533 245.176 11.4908 245.097 11.4119C245.018 11.3331 244.955 11.2394 244.912 11.1362C244.87 11.0331 244.848 10.9225 244.848 10.8108C244.848 10.6992 244.87 10.5886 244.912 10.4854C244.955 10.3823 245.018 10.2886 245.097 10.2097C245.176 10.1309 245.27 10.0684 245.373 10.0259C245.476 9.98335 245.587 9.96162 245.698 9.96192H271.706C271.818 9.96162 271.928 9.98335 272.031 10.0259C272.135 10.0684 272.228 10.1309 272.307 10.2097C272.386 10.2886 272.449 10.3823 272.492 10.4854C272.535 10.5886 272.557 10.6992 272.557 10.8108C272.557 10.9225 272.535 11.0331 272.492 11.1362C272.449 11.2394 272.386 11.3331 272.307 11.4119C272.228 11.4908 272.135 11.5533 272.031 11.5958C271.928 11.6383 271.818 11.6601 271.706 11.6598Z" fill="#6C63FF"/>
<path d="M271.706 15.0143H245.698C245.473 15.0143 245.257 14.9249 245.098 14.7657C244.939 14.6065 244.85 14.3905 244.85 14.1654C244.85 13.9402 244.939 13.7243 245.098 13.5651C245.257 13.4058 245.473 13.3164 245.698 13.3164H271.706C271.931 13.3164 272.146 13.4058 272.306 13.5651C272.465 13.7243 272.554 13.9402 272.554 14.1654C272.554 14.3905 272.465 14.6065 272.306 14.7657C272.146 14.9249 271.931 15.0143 271.706 15.0143Z" fill="#6C63FF"/>
<path d="M256.972 18.3688H245.698C245.473 18.3688 245.257 18.2794 245.098 18.1202C244.939 17.961 244.85 17.745 244.85 17.5199C244.85 17.2947 244.939 17.0788 245.098 16.9196C245.257 16.7604 245.473 16.6709 245.698 16.6709H256.972C257.197 16.6709 257.412 16.7604 257.571 16.9196C257.731 17.0788 257.82 17.2947 257.82 17.5199C257.82 17.745 257.731 17.961 257.571 18.1202C257.412 18.2794 257.197 18.3688 256.972 18.3688Z" fill="#6C63FF"/>
<path d="M271.706 25.3951H245.698C245.587 25.3954 245.476 25.3737 245.373 25.3312C245.27 25.2886 245.176 25.2261 245.097 25.1473C245.018 25.0684 244.955 24.9747 244.912 24.8716C244.87 24.7684 244.848 24.6579 244.848 24.5462C244.848 24.4345 244.87 24.3239 244.912 24.2208C244.955 24.1176 245.018 24.024 245.097 23.9451C245.176 23.8662 245.27 23.8038 245.373 23.7612C245.476 23.7187 245.587 23.697 245.698 23.6973H271.706C271.818 23.697 271.928 23.7187 272.031 23.7612C272.135 23.8038 272.228 23.8662 272.307 23.9451C272.386 24.024 272.449 24.1176 272.492 24.2208C272.535 24.3239 272.557 24.4345 272.557 24.5462C272.557 24.6579 272.535 24.7684 272.492 24.8716C272.449 24.9747 272.386 25.0684 272.307 25.1473C272.228 25.2261 272.135 25.2886 272.031 25.3312C271.928 25.3737 271.818 25.3954 271.706 25.3951Z" fill="#E4E4E4"/>
<path d="M271.706 28.7497H245.698C245.587 28.75 245.476 28.7283 245.373 28.6857C245.27 28.6432 245.176 28.5807 245.097 28.5019C245.018 28.423 244.955 28.3293 244.912 28.2261C244.87 28.123 244.848 28.0124 244.848 27.9007C244.848 27.789 244.87 27.6785 244.912 27.5753C244.955 27.4722 245.018 27.3785 245.097 27.2996C245.176 27.2207 245.27 27.1583 245.373 27.1157C245.476 27.0732 245.587 27.0515 245.698 27.0518H271.706C271.818 27.0515 271.928 27.0732 272.031 27.1157C272.135 27.1583 272.228 27.2207 272.307 27.2996C272.386 27.3785 272.449 27.4722 272.492 27.5753C272.535 27.6785 272.557 27.789 272.557 27.9007C272.557 28.0124 272.535 28.123 272.492 28.2261C272.449 28.3293 272.386 28.423 272.307 28.5019C272.228 28.5807 272.135 28.6432 272.031 28.6857C271.928 28.7283 271.818 28.75 271.706 28.7497Z" fill="#E4E4E4"/>
<path d="M256.972 32.1042H245.698C245.473 32.1042 245.257 32.0147 245.098 31.8555C244.939 31.6963 244.85 31.4804 244.85 31.2552C244.85 31.0301 244.939 30.8141 245.098 30.6549C245.257 30.4957 245.473 30.4062 245.698 30.4062H256.972C257.197 30.4062 257.412 30.4957 257.571 30.6549C257.731 30.8141 257.82 31.0301 257.82 31.2552C257.82 31.4804 257.731 31.6963 257.571 31.8555C257.412 32.0147 257.197 32.1042 256.972 32.1042Z" fill="#E4E4E4"/>
</g>
<defs>
<clipPath id="clip0_143_408">
<rect width="535" height="399" fill="white"/>
</clipPath>
</defs>
</svg>
